<?xml version="1.0" standalone="no"?>
<!DOCTYPE svg PUBLIC "-//W3C//DTD SVG 20010904//EN"
 "http://www.w3.org/TR/2001/REC-SVG-20010904/DTD/svg10.dtd">
<svg version="1.0" xmlns="http://www.w3.org/2000/svg"
 width="900.000000pt" height="900.000000pt" viewBox="0 0 900.000000 900.000000"
 preserveAspectRatio="xMidYMid meet">
<metadata>
Created by potrace 1.10, written by Peter Selinger 2001-2011
</metadata>
<g transform="translate(0.000000,900.000000) scale(0.100000,-0.100000)"
fill="#ec1818" stroke="none">
<path d="M5183 6983 c-38 -8 -26 -28 25 -42 109 -31 163 -52 205 -81 25 -16
48 -30 52 -30 3 0 30 -24 59 -53 71 -71 102 -150 87 -223 -14 -72 -59 -143
-148 -233 -43 -42 -177 -181 -298 -307 -286 -298 -402 -419 -456 -474 -49 -50
-421 -437 -484 -503 -22 -23 -114 -119 -205 -213 -91 -95 -232 -242 -315 -329
-176 -185 -449 -468 -520 -540 -48 -49 -457 -474 -520 -541 -59 -63 -416 -432
-537 -555 -107 -109 -197 -189 -297 -263 -14 -11 -44 -35 -66 -53 -78 -66
-178 -145 -295 -234 -146 -111 -194 -142 -309 -201 -52 -26 -102 -48 -110 -48
-9 0 -27 -9 -41 -20 -20 -15 -22 -21 -13 -31 10 -10 29 -10 90 1 59 10 275 14
873 17 l795 3 45 44 c89 86 187 179 289 274 58 53 121 113 141 132 19 19 98
94 175 165 77 72 158 148 180 170 22 22 90 85 150 141 61 56 151 141 200 190
50 49 148 141 219 204 71 63 161 146 200 183 39 37 94 89 121 114 54 50 297
277 356 333 21 19 67 59 103 89 74 62 83 86 34 96 -28 6 -595 277 -638 305 -8
6 -24 14 -35 19 -11 5 -47 21 -80 35 -33 15 -67 31 -75 36 -8 6 -22 13 -30 16
-21 8 -46 19 -112 48 -43 19 -58 31 -58 46 0 17 7 20 43 21 23 1 46 1 52 -1
41 -8 1547 -9 1568 -1 15 6 57 41 95 78 38 37 164 160 281 272 116 113 221
220 232 238 17 27 27 33 48 31 29 -3 28 6 12 -128 -4 -41 -8 -167 -7 -280 l1
-204 475 3 c261 2 499 7 529 12 37 6 59 5 68 -2 22 -19 15 -37 -17 -44 -16 -4
-30 -10 -30 -15 0 -5 -10 -12 -22 -15 -37 -10 -147 -56 -238 -98 -147 -68
-232 -108 -325 -152 -49 -23 -135 -64 -190 -90 -55 -26 -112 -53 -127 -61 -14
-8 -33 -14 -41 -14 -8 0 -27 -10 -42 -21 l-27 -22 4 -283 3 -284 -25 0 c-14 0
-36 12 -49 26 -14 14 -79 52 -145 86 -67 33 -162 82 -213 109 -85 45 -94 48
-125 37 -18 -6 -42 -17 -53 -24 -11 -7 -56 -27 -100 -44 -44 -18 -102 -43
-130 -55 -27 -13 -75 -33 -105 -45 -30 -12 -81 -35 -113 -51 -31 -16 -64 -29
-71 -29 -8 0 -27 -6 -43 -14 -69 -35 -161 -76 -171 -76 -6 0 -23 -7 -39 -15
-55 -28 -163 -75 -174 -75 -6 0 -23 -6 -37 -14 -49 -26 -162 -76 -173 -76 -6
0 -23 -6 -37 -14 -45 -23 -161 -76 -168 -76 -7 0 -53 -20 -141 -61 -35 -16
-67 -29 -72 -29 -6 0 -45 -16 -87 -35 -52 -24 -74 -39 -67 -46 6 -6 407 -9
1191 -7 783 2 1182 0 1182 -7 1 -5 0 -227 0 -493 l-1 -484 38 -37 38 -38 420
4 c231 3 462 1 513 -4 63 -6 98 -6 108 2 12 9 14 352 14 2474 0 1355 -2 2466
-4 2468 -1 2 -486 5 -1077 7 -591 2 -1094 6 -1119 9 -25 3 -55 3 -67 0z m1319
-113 c403 -1 741 2 751 6 19 7 57 -20 57 -41 0 -7 8 -19 19 -29 15 -14 18 -30
16 -104 -1 -48 -3 -439 -5 -869 -1 -574 1 -787 10 -803 9 -17 8 -26 -3 -43
-10 -16 -13 -39 -9 -75 4 -43 1 -55 -13 -66 -22 -16 -14 -46 15 -53 11 -3 20
-11 20 -19 0 -17 -119 -17 -163 1 -22 9 -105 14 -270 18 -131 3 -241 7 -244
11 -10 10 -61 7 -68 -4 -3 -5 -17 -10 -30 -10 -13 0 -27 5 -30 10 -9 15 -43
12 -75 -6 -34 -21 -60 -13 -60 18 0 13 -8 28 -19 35 -22 14 -37 81 -22 96 6 6
11 37 11 69 0 53 -9 83 -47 165 -10 20 -14 47 -10 72 3 24 0 47 -7 57 -23 31
-146 60 -146 34 0 -10 -37 -28 -73 -35 -20 -4 -127 -109 -127 -124 0 -5 -9
-13 -21 -16 -12 -4 -54 -38 -94 -76 -43 -41 -81 -69 -94 -69 -17 0 -21 -6 -21
-34 0 -24 -5 -36 -18 -40 -9 -3 -44 -31 -77 -62 -55 -51 -63 -55 -97 -51 -33
4 -39 1 -58 -27 l-22 -31 -581 0 c-320 0 -589 -4 -598 -8 -24 -12 -67 31 -74
74 -6 32 -2 40 52 98 32 35 70 76 85 90 14 14 32 32 40 40 7 8 43 45 79 81 37
37 72 77 78 88 6 12 23 27 38 34 16 7 33 24 40 38 6 14 37 47 67 73 31 27 56
54 56 60 0 7 8 20 18 29 9 10 31 31 47 48 17 16 33 30 37 30 3 0 16 15 27 34
12 18 37 44 56 57 19 13 37 34 40 47 3 12 18 28 33 35 15 6 29 15 32 18 3 4
14 9 25 11 13 2 19 11 18 25 -2 13 9 29 27 43 17 13 30 29 30 35 0 7 17 16 37
20 44 8 53 18 53 61 0 20 10 39 30 59 17 16 30 23 30 17 0 -7 7 -12 16 -12 10
0 14 6 10 15 -9 25 3 41 60 80 30 21 54 43 54 49 0 6 40 50 89 98 49 49 96
103 105 122 8 18 22 39 31 46 8 7 15 20 15 29 0 10 7 39 17 66 12 35 13 50 5
53 -15 5 -16 114 -2 128 7 7 1 23 -20 49 -33 41 -36 55 -18 73 8 8 8 15 -2 27
-22 27 22 47 82 39 15 -2 357 -4 760 -4z m848 -2278 c0 -4 -16 -25 -35 -47
-39 -42 -39 -65 -2 -65 14 0 30 -7 37 -15 10 -13 10 -19 -4 -33 -21 -24 -20
-38 4 -77 20 -32 20 -32 0 -58 -19 -23 -27 -67 -15 -79 10 -10 5 -1929 -5
-1948 -7 -13 -5 -21 5 -30 21 -17 19 -37 -5 -50 -11 -6 -23 -22 -26 -35 -9
-36 -33 -53 -48 -34 -18 25 -47 31 -65 15 -14 -13 -70 -16 -348 -17 l-331 -2
-50 44 -51 43 0 318 c-1 306 0 320 20 347 18 24 19 31 8 57 -7 16 -19 36 -27
46 -7 9 -14 43 -15 77 -1 42 -6 60 -14 57 -16 -6 -38 20 -23 29 24 15 5 23
-68 29 -49 4 -90 14 -109 26 -26 16 -32 16 -37 4 -5 -12 -115 -14 -803 -11
-439 2 -806 7 -815 11 -24 11 -23 26 1 26 32 0 52 12 61 35 6 15 20 25 44 29
20 4 36 11 36 16 0 5 12 13 28 16 15 4 59 22 99 41 40 18 78 33 86 33 30 0
107 33 107 46 0 8 3 13 8 12 11 -2 65 13 92 28 14 7 32 15 40 18 8 3 38 19 65
35 28 16 65 32 83 36 18 3 67 24 110 46 42 21 84 39 93 39 29 0 111 32 116 46
3 7 21 16 41 20 21 3 49 14 64 25 24 17 29 17 55 4 15 -8 51 -19 79 -25 31 -7
60 -20 74 -35 16 -17 30 -23 45 -19 13 3 27 -1 34 -10 7 -8 36 -22 64 -32 29
-9 59 -26 68 -37 31 -38 169 -33 169 6 0 7 15 17 33 22 30 9 32 13 30 49 -2
25 3 46 13 57 8 9 14 27 12 40 -1 13 4 43 11 66 13 38 12 45 -2 61 -21 23 -21
51 -2 76 8 11 15 38 15 61 0 23 7 50 15 61 8 10 15 25 15 32 0 19 50 62 72 62
20 0 62 24 91 54 13 12 28 16 47 12 18 -3 33 0 40 9 7 8 19 15 28 15 8 0 23 6
31 13 9 8 35 19 58 26 23 6 55 22 70 35 15 13 44 26 64 30 21 4 52 17 70 29
60 40 119 67 148 67 30 0 55 21 69 60 14 38 132 93 132 62z m-3352 -61 c15
-15 39 -31 54 -35 14 -3 47 -22 72 -41 28 -21 57 -35 75 -35 15 0 45 -11 65
-25 20 -14 41 -25 46 -25 21 0 59 -24 63 -39 2 -10 27 -24 60 -34 32 -10 57
-22 57 -28 0 -5 10 -9 23 -9 12 0 49 -13 82 -30 33 -16 70 -30 82 -30 15 0 28
-11 38 -30 11 -21 23 -30 40 -30 31 0 35 -34 5 -50 -11 -6 -29 -30 -39 -54
-12 -25 -36 -54 -61 -71 -24 -17 -39 -34 -36 -42 4 -9 -3 -13 -19 -13 -17 0
-25 -6 -25 -18 0 -18 -38 -52 -72 -65 -10 -3 -18 -16 -18 -27 0 -14 -13 -27
-45 -42 -25 -12 -48 -30 -51 -41 -3 -11 -12 -16 -20 -13 -9 3 -17 -2 -21 -12
-3 -9 -12 -24 -19 -32 -53 -61 -76 -80 -92 -78 -11 2 -23 -10 -36 -37 -11 -22
-27 -44 -35 -49 -9 -6 -39 -31 -67 -58 -28 -26 -54 -48 -58 -48 -13 0 -66 -58
-66 -72 0 -7 -25 -33 -55 -57 -30 -24 -55 -48 -55 -52 0 -5 -5 -9 -11 -9 -5 0
-22 -11 -37 -25 -63 -57 -110 -95 -118 -95 -5 0 -15 -13 -22 -30 -8 -16 -30
-43 -50 -59 -20 -16 -59 -50 -87 -75 -27 -25 -53 -46 -58 -46 -4 0 -12 -11
-17 -24 -5 -14 -31 -36 -59 -52 -28 -15 -51 -31 -51 -36 0 -5 -12 -21 -27 -36
-16 -15 -35 -40 -43 -57 -8 -16 -30 -37 -48 -46 -18 -10 -56 -38 -83 -63 -27
-25 -53 -46 -56 -46 -13 0 -92 -71 -98 -88 -3 -9 -23 -30 -45 -45 -23 -16 -40
-36 -40 -48 0 -10 -5 -19 -10 -19 -6 0 -49 -36 -96 -80 l-85 -80 -83 0 c-61 0
-87 -4 -96 -15 -10 -12 -68 -14 -358 -15 -190 0 -363 -3 -384 -6 -21 -4 -43
-2 -50 4 -8 6 -29 7 -58 2 -57 -10 -185 -1 -228 17 -41 17 -39 42 5 57 17 6
41 23 52 38 12 14 36 30 54 33 17 4 41 17 52 30 11 12 52 49 90 81 39 32 78
68 88 80 10 13 26 26 37 29 11 4 27 19 35 35 10 19 25 30 49 34 43 8 81 41
279 244 60 61 115 112 122 112 14 0 34 21 50 54 6 11 27 30 48 41 24 13 37 27
37 41 0 35 24 74 45 74 22 0 105 90 105 113 0 8 21 32 46 53 104 87 132 115
149 153 12 27 26 42 43 46 28 7 73 49 112 105 13 19 31 39 39 44 8 5 40 33 73
62 32 30 62 54 68 54 5 0 10 7 10 16 0 8 17 33 38 53 20 21 57 62 82 90 25 29
59 68 75 86 17 18 38 45 48 59 10 14 35 35 56 45 20 11 43 32 50 47 7 15 40
54 75 85 34 31 75 76 90 98 16 23 40 44 53 47 31 8 91 61 110 99 20 38 59 68
97 76 17 4 32 7 34 8 2 0 15 -12 30 -28z"/>
<path d="M5720 6591 c-13 -26 -13 -31 5 -31 9 0 15 9 15 25 0 30 -6 32 -20 6z"/>
</g>
</svg>
