<?xml version="1.0" standalone="no"?>
<!DOCTYPE svg PUBLIC "-//W3C//DTD SVG 20010904//EN"
 "http://www.w3.org/TR/2001/REC-SVG-20010904/DTD/svg10.dtd">
<svg version="1.0" xmlns="http://www.w3.org/2000/svg"
 width="900.000000pt" height="636.000000pt" viewBox="0 0 900.000000 636.000000"
 preserveAspectRatio="xMidYMid meet">
<metadata>
Created by potrace 1.10, written by Peter Selinger 2001-2011
</metadata>
<g transform="translate(0.000000,636.000000) scale(0.100000,-0.100000)"
fill="#eebe11" stroke="none">
<path d="M3412 5183 c-12 -2 -37 -18 -54 -34 -18 -16 -36 -29 -39 -29 -4 0
-31 -16 -60 -35 -30 -19 -57 -35 -62 -35 -4 0 -13 -4 -20 -10 -65 -54 -114
-86 -125 -82 -8 2 -26 -7 -40 -21 -15 -14 -37 -28 -49 -32 -13 -3 -23 -10 -23
-15 0 -5 -18 -19 -40 -30 -55 -28 -306 -197 -343 -232 -17 -15 -36 -28 -41
-28 -5 0 -32 -17 -60 -39 -28 -21 -59 -42 -68 -47 -10 -5 -35 -24 -55 -42 -21
-18 -78 -64 -128 -102 -49 -38 -103 -81 -120 -95 -37 -31 -62 -51 -110 -90
-119 -96 -509 -486 -600 -599 -22 -28 -51 -62 -65 -77 -14 -16 -38 -46 -55
-68 -16 -23 -40 -53 -53 -67 -13 -15 -35 -45 -50 -68 -15 -22 -30 -45 -35 -51
-52 -68 -77 -106 -77 -115 0 -7 -13 -29 -28 -49 -16 -20 -32 -43 -35 -51 -4
-8 -21 -37 -37 -65 -16 -27 -34 -61 -40 -75 -6 -14 -17 -38 -24 -55 -34 -74
-46 -107 -46 -123 0 -10 -5 -23 -11 -29 -39 -39 -58 -456 -28 -613 13 -70 49
-192 60 -205 5 -5 9 -18 9 -28 0 -17 12 -45 41 -97 5 -8 15 -28 24 -45 50 -99
172 -251 269 -334 75 -65 211 -151 238 -151 6 0 19 -6 27 -13 89 -74 458 -125
636 -88 179 37 321 94 440 177 144 100 290 263 380 424 14 25 29 52 34 60 28
51 41 80 41 97 0 10 4 23 10 29 5 5 13 41 17 79 l8 70 685 6 c734 6 733 5 820
58 19 11 44 25 55 30 51 23 165 164 210 261 23 48 65 192 86 295 18 89 37 164
44 175 4 6 11 35 15 63 10 58 25 119 46 187 8 25 14 56 14 69 0 13 7 44 15 70
13 44 29 107 54 214 36 156 -21 283 -154 346 l-65 31 -754 0 c-740 0 -755 0
-761 -20 -3 -10 -10 -41 -15 -67 -15 -78 -34 -156 -75 -308 -16 -62 -35 -139
-45 -185 -9 -44 -28 -120 -45 -185 -13 -47 -24 -95 -47 -190 -5 -22 -15 -69
-21 -105 -7 -36 -16 -71 -21 -79 -5 -8 -10 -143 -11 -300 -1 -157 -5 -295 -9
-306 -4 -12 -27 -33 -52 -48 -46 -28 -84 -92 -84 -142 0 -25 -60 -144 -94
-186 -11 -15 -46 -61 -76 -104 -49 -69 -166 -186 -209 -209 -9 -5 -42 -26 -73
-47 -54 -36 -176 -99 -192 -99 -5 0 -22 -6 -39 -14 -144 -63 -458 -63 -604 0
-17 8 -34 14 -39 14 -15 0 -160 73 -191 96 -17 13 -35 24 -40 24 -35 0 -313
276 -313 311 0 4 -13 28 -30 52 -16 25 -30 47 -30 50 0 3 -13 34 -29 69 -71
154 -86 247 -79 486 5 146 9 188 27 237 11 32 21 69 21 80 0 12 14 48 30 80
17 32 30 67 30 76 0 10 4 20 8 23 5 3 26 39 46 82 21 42 50 95 65 118 14 22
31 49 36 58 23 39 131 194 147 212 10 11 30 38 45 60 15 23 34 45 41 49 7 5
22 23 32 40 20 33 126 151 198 221 23 23 42 45 42 50 0 8 266 271 330 326 23
19 57 50 76 68 44 41 58 41 51 2 -7 -35 -5 -36 23 -13 18 16 18 18 3 35 -15
17 -14 19 12 40 16 12 43 37 62 55 18 18 42 33 53 33 12 0 38 19 62 45 22 24
45 42 49 39 5 -3 9 2 9 10 0 10 9 16 25 16 14 0 25 4 25 8 0 5 19 22 43 39 23
17 61 49 83 70 47 46 216 173 271 205 21 12 46 30 56 40 10 10 32 18 52 18 22
0 39 7 47 19 16 23 95 76 128 86 14 4 35 18 47 31 23 26 39 29 62 15 12 -8 10
-20 -13 -73 -18 -41 -30 -88 -33 -136 -4 -48 -12 -79 -22 -90 -9 -8 -17 -25
-18 -36 -6 -56 -22 -125 -37 -166 -10 -25 -22 -70 -26 -100 -5 -30 -16 -95
-25 -145 -8 -49 -20 -137 -25 -195 -6 -58 -15 -126 -21 -152 -6 -26 -8 -64 -5
-85 4 -21 2 -69 -4 -108 -15 -107 -21 -239 -21 -480 -1 -234 3 -293 20 -338
12 -31 31 -28 31 4 0 11 7 27 15 35 12 12 15 48 16 182 3 389 9 583 19 602 6
11 13 91 16 178 4 102 11 171 20 196 9 24 14 67 13 107 -1 47 2 73 12 85 9 11
14 41 14 78 1 41 6 69 18 86 11 16 17 44 17 80 1 32 7 63 15 74 8 11 15 34 15
52 0 17 7 37 15 44 8 7 15 28 15 47 0 19 7 42 16 50 11 11 14 26 10 46 -5 23
-1 33 14 44 11 8 20 25 20 39 0 13 4 24 10 24 5 0 13 12 16 27 4 15 13 34 21
41 7 7 13 24 13 36 0 12 13 36 30 52 16 16 30 33 30 39 0 5 16 26 36 46 49 50
38 66 -34 52z m1444 -1463 c23 -14 54 -40 70 -59 26 -32 29 -42 29 -110 0 -42
-8 -103 -17 -136 -9 -33 -23 -89 -31 -125 -8 -36 -27 -114 -42 -175 -15 -60
-36 -146 -47 -190 -11 -44 -23 -96 -28 -115 -5 -19 -18 -71 -29 -115 -56 -227
-81 -282 -173 -381 -84 -90 -153 -122 -286 -133 -54 -5 -113 -7 -132 -5 -19 2
-188 3 -375 3 -645 -1 -613 -3 -636 36 -15 26 -18 59 -18 245 -1 213 2 240 38
325 9 21 29 90 57 190 9 33 23 80 30 105 7 25 18 72 24 105 7 33 23 103 37
155 13 52 36 140 50 195 30 119 61 186 92 201 17 9 204 12 685 10 l661 -1 41
-25z"/>
<path d="M3919 3638 c-48 -37 -106 -117 -115 -157 -3 -14 -9 -34 -15 -43 -5
-10 -9 -26 -9 -37 0 -20 -18 -98 -50 -211 -9 -36 -23 -92 -30 -125 -7 -33 -21
-89 -30 -125 -10 -36 -24 -92 -31 -125 -7 -33 -16 -67 -20 -76 -9 -18 -33
-124 -55 -239 -8 -41 -11 -88 -8 -104 9 -43 89 -124 135 -136 55 -15 316 -15
367 1 51 15 155 106 181 158 33 68 117 364 151 531 5 25 24 108 44 185 19 77
42 184 51 238 l17 98 -27 54 c-26 55 -83 110 -138 133 -18 8 -89 12 -202 12
l-173 0 -43 -32z m460 -112 c25 -39 26 -62 7 -125 -16 -50 -34 -123 -47 -186
-10 -53 -28 -120 -45 -175 -8 -25 -14 -56 -14 -69 0 -13 -7 -44 -15 -70 -8
-25 -21 -75 -30 -111 -9 -36 -21 -81 -27 -100 -7 -19 -15 -53 -19 -75 -31
-155 -48 -192 -110 -230 -35 -23 -46 -24 -225 -25 -104 -1 -195 -1 -201 -1
-22 1 -16 34 40 211 6 19 14 53 18 75 9 47 26 116 42 165 6 19 14 53 18 75 8
42 21 98 44 180 19 72 35 134 45 180 10 48 27 113 46 179 8 26 14 61 14 76 0
62 -8 60 225 60 l213 0 21 -34z"/>
<path d="M2586 4434 c-4 -9 -4 -19 -1 -22 6 -6 35 18 35 29 0 16 -28 10 -34
-7z"/>
<path d="M2046 4085 c-9 -13 -16 -27 -16 -31 0 -9 50 39 50 49 0 15 -18 6 -34
-18z"/>
<path d="M1974 4025 c-9 -35 0 -41 25 -16 26 26 27 41 1 41 -13 0 -22 -9 -26
-25z"/>
<path d="M1895 3947 c-17 -18 -58 -63 -90 -100 -33 -38 -74 -77 -92 -88 -36
-22 -135 -138 -208 -243 -26 -38 -51 -74 -56 -80 -79 -99 -151 -214 -204 -326
-15 -30 -46 -95 -70 -145 -23 -49 -46 -103 -49 -119 -4 -15 -14 -35 -21 -43
-8 -8 -15 -32 -15 -54 0 -22 -4 -49 -10 -59 -5 -10 -17 -76 -25 -147 -15 -125
-15 -130 6 -208 28 -105 34 -154 20 -168 -14 -14 -14 -64 -1 -72 6 -3 10 5 10
19 0 14 4 27 9 31 9 5 51 -45 51 -60 0 -4 12 -19 26 -32 28 -26 45 -23 28 5
-44 70 -84 157 -84 182 0 16 -4 31 -8 34 -14 8 -21 172 -12 271 10 107 26 188
46 232 7 17 14 38 14 47 0 9 4 16 9 16 5 0 12 12 15 28 6 26 29 80 48 112 4 8
11 22 14 30 7 18 10 26 58 114 20 38 44 75 52 83 7 8 14 19 14 24 0 5 12 27
28 48 15 21 34 49 42 61 24 35 143 194 150 200 3 3 16 19 28 36 24 35 58 75
120 143 23 25 42 49 42 53 0 3 24 31 53 61 65 69 127 138 127 143 0 15 -40 -3
-65 -29z"/>
<path d="M2810 3879 c0 -11 5 -17 10 -14 6 3 10 13 10 21 0 8 -4 14 -10 14 -5
0 -10 -9 -10 -21z"/>
<path d="M7955 3860 c-646 -5 -628 -4 -725 -48 -39 -18 -134 -89 -166 -124
-64 -71 -127 -199 -145 -298 -17 -91 -32 -156 -45 -195 -8 -23 -14 -52 -14
-65 0 -14 -6 -45 -14 -70 -21 -68 -36 -129 -46 -187 -4 -28 -11 -57 -15 -62
-3 -6 -10 -32 -15 -59 -5 -26 -19 -85 -30 -132 -12 -47 -25 -105 -29 -130 -5
-25 -13 -58 -20 -73 -29 -72 5 -202 67 -263 19 -19 63 -47 96 -63 l61 -28 623
-1 c595 0 623 1 632 18 6 10 10 29 10 41 0 24 25 107 46 154 8 17 15 41 16 55
l3 25 -420 5 c-295 4 -426 8 -440 17 -15 9 -19 21 -19 53 1 39 9 70 50 200 8
25 14 55 14 68 0 13 5 32 11 43 6 11 14 41 19 67 13 65 35 162 48 203 12 41
30 109 42 164 5 22 17 69 26 105 9 36 21 88 28 115 16 68 39 109 79 139 l34
26 359 0 c197 -1 379 -5 404 -10 55 -11 65 -3 80 65 7 28 18 73 25 100 28 108
32 134 21 145 -5 5 -15 9 -20 8 -6 -2 -290 -5 -631 -8z m475 -136 c10 -10 11
-17 3 -25 -28 -28 -95 -31 -545 -29 -129 1 -153 -1 -195 -20 -48 -21 -163
-124 -163 -146 0 -6 -11 -36 -24 -65 -13 -30 -26 -72 -30 -94 -4 -22 -13 -62
-21 -90 -30 -113 -48 -184 -66 -265 -21 -99 -51 -216 -79 -315 -27 -98 -40
-168 -40 -224 0 -50 23 -109 46 -118 7 -3 16 -14 19 -24 8 -25 93 -68 148 -75
23 -3 149 -6 280 -7 150 -1 237 -6 237 -12 0 -6 -121 -13 -327 -18 -181 -4
-391 -10 -468 -12 -261 -8 -319 5 -372 84 -41 61 -31 156 52 481 35 137 47
188 54 225 4 22 12 56 18 75 7 19 16 58 21 85 23 117 49 221 60 242 7 12 12
32 13 45 0 13 11 43 24 68 13 25 28 55 34 67 27 59 162 156 251 179 69 19
1049 8 1070 -12z"/>
<path d="M5390 3836 c0 -14 -5 -37 -11 -53 -6 -15 -15 -50 -19 -78 -9 -54 -25
-118 -43 -175 -6 -19 -14 -55 -18 -80 -8 -48 -24 -113 -42 -170 -6 -19 -14
-53 -18 -75 -9 -48 -27 -117 -42 -165 -6 -19 -14 -55 -18 -80 -8 -48 -24 -114
-42 -170 -6 -19 -14 -55 -18 -80 -8 -48 -24 -114 -42 -170 -6 -19 -14 -55 -18
-80 -4 -25 -11 -58 -17 -75 -13 -37 -30 -105 -42 -165 -5 -25 -16 -63 -24 -85
-31 -83 -111 -75 754 -75 878 0 783 -12 799 97 5 32 16 86 25 121 10 35 16 68
13 75 -2 8 -111 11 -430 8 l-427 -3 0 21 c0 12 8 47 19 78 29 92 44 152 72
283 6 30 15 62 19 71 5 9 12 34 15 55 4 22 13 59 20 84 16 55 33 121 45 175
27 121 36 157 75 298 8 28 16 66 19 82 5 34 22 102 39 155 5 19 14 51 18 70 4
19 14 53 22 75 8 22 13 43 10 47 -2 5 -159 8 -349 8 l-344 0 0 -24z m515 -117
c19 -18 19 -21 2 -101 -10 -46 -26 -112 -36 -148 -26 -89 -41 -148 -50 -195
-5 -22 -18 -76 -31 -120 -12 -44 -26 -100 -30 -125 -5 -25 -18 -81 -30 -125
-12 -44 -25 -98 -30 -120 -5 -22 -18 -76 -30 -120 -68 -264 -65 -292 42 -377
l42 -33 308 -5 c331 -5 359 -10 309 -51 -23 -19 -41 -20 -355 -19 -182 0 -445
0 -585 0 -328 0 -319 -6 -285 158 8 42 31 140 51 217 46 185 50 201 63 260 5
28 22 95 36 150 14 55 27 107 29 116 2 8 10 44 19 80 8 35 20 91 27 124 7 33
18 72 26 87 7 15 13 37 13 50 0 13 13 73 28 133 46 179 51 183 187 187 174 5
258 -2 280 -23z"/>
<path d="M2760 3693 c0 -5 4 -15 10 -23 11 -18 25 -7 17 15 -6 15 -27 21 -27
8z"/>
<path d="M2121 3509 c-7 -23 -15 -47 -18 -55 -3 -8 1 -14 10 -14 20 0 23 6 31
63 9 58 -6 62 -23 6z"/>
<path d="M2730 3499 c-9 -33 -9 -50 2 -77 21 -57 38 -52 31 9 -5 42 -3 53 10
61 27 15 21 48 -8 48 -20 0 -26 -7 -35 -41z"/>
<path d="M2731 3241 c-22 -17 -23 -21 -12 -54 11 -32 10 -38 -8 -56 -13 -13
-18 -27 -14 -42 l6 -22 17 23 17 23 6 -33 c4 -18 7 -45 7 -61 0 -15 5 -31 10
-34 6 -4 10 43 10 134 0 78 -3 141 -7 141 -5 0 -19 -9 -32 -19z"/>
<path d="M1161 3076 c-8 -9 -11 -19 -7 -23 9 -9 29 13 24 27 -2 8 -8 7 -17 -4z"/>
<path d="M2727 2913 c7 -45 10 -50 24 -36 16 16 7 67 -13 71 -14 3 -16 -3 -11
-35z"/>
<path d="M1092 2917 c-12 -13 -22 -34 -22 -46 0 -13 -9 -34 -20 -48 -14 -18
-17 -30 -11 -42 5 -9 6 -23 1 -32 -11 -19 4 -44 20 -34 7 4 9 17 5 32 -3 15 0
34 8 47 8 11 17 38 20 60 3 21 14 44 24 51 13 10 15 17 7 24 -7 8 -17 5 -32
-12z"/>
<path d="M2740 2830 c0 -19 11 -26 23 -14 8 8 -3 34 -14 34 -5 0 -9 -9 -9 -20z"/>
<path d="M1007 2667 c-18 -28 -28 -177 -12 -177 6 0 18 9 28 20 13 15 17 39
17 95 0 80 -9 98 -33 62z"/>
<path d="M980 2361 c0 -10 7 -25 16 -32 12 -10 15 -24 10 -56 -5 -36 -2 -47
19 -69 14 -15 28 -24 32 -20 4 3 1 12 -5 18 -7 7 -12 39 -12 73 0 51 -4 65
-23 83 -29 27 -37 28 -37 3z"/>
<path d="M1050 2015 c0 -25 85 -135 174 -225 109 -109 201 -174 319 -225 20
-9 37 -20 37 -25 0 -6 11 -10 24 -10 14 0 31 -6 38 -14 8 -7 36 -16 63 -21 28
-4 57 -11 65 -15 8 -4 37 -11 64 -15 39 -6 48 -5 44 6 -2 7 -22 18 -44 23 -21
5 -41 12 -44 16 -3 4 -24 10 -48 14 -24 3 -54 14 -68 23 -14 8 -27 13 -31 10
-3 -4 -18 0 -32 7 -14 8 -33 17 -41 21 -16 7 -89 49 -138 80 -18 11 -32 23
-32 28 0 11 28 9 35 -3 3 -5 15 -10 26 -10 17 0 18 3 7 20 -7 11 -21 20 -31
20 -18 0 -58 31 -101 79 -71 79 -165 171 -175 171 -6 0 -11 5 -11 11 0 8 -5 7
-16 -1 -13 -11 -20 -8 -44 18 -32 36 -40 39 -40 17z"/>
<path d="M1565 1620 c3 -5 13 -10 21 -10 8 0 14 5 14 10 0 6 -9 10 -21 10 -11
0 -17 -4 -14 -10z"/>
<path d="M2268 1603 c-33 -8 -18 -23 22 -23 22 0 40 5 40 10 0 6 -4 10 -9 10
-5 0 -15 2 -23 4 -7 2 -21 2 -30 -1z"/>
<path d="M2391 1561 c-32 -9 -40 -31 -11 -31 21 0 80 26 80 35 0 7 -40 4 -69
-4z"/>
<path d="M2245 1504 c-64 -19 -104 -25 -238 -33 -59 -3 -108 -10 -110 -16 -1
-6 41 -11 107 -13 84 -2 114 1 132 13 13 8 43 15 67 15 27 0 49 6 57 15 7 8
25 15 41 15 15 0 31 5 34 10 9 14 -30 11 -90 -6z"/>
</g>
</svg>
