<svg version="1.1" id="Layer_1" xmlns="http://www.w3.org/2000/svg" xmlns:xlink="http://www.w3.org/1999/xlink" x="0px" y="0px"
	 width="100%" viewBox="0 0 560 310" enable-background="new 0 0 560 310" xml:space="preserve">
<path fill="#FEFEFE" opacity="1.000000" stroke="none" 
	d="
M430.000000,311.000000 
	C286.707672,311.000000 143.915375,311.000000 1.061527,311.000000 
	C1.061527,207.737396 1.061527,104.474739 1.061527,1.106040 
	C187.666641,1.106040 374.333313,1.106040 560.981018,1.106040 
	C560.981018,104.417976 560.981018,207.708984 560.981018,311.000000 
	C517.474670,311.000000 473.987335,311.000000 430.000000,311.000000 
M173.970154,117.114937 
	C174.258438,112.070770 174.546722,107.026611 175.010193,101.167801 
	C175.625748,96.113892 176.241302,91.059990 177.244278,85.291313 
	C178.165726,80.661720 178.979813,76.007683 180.027634,71.406883 
	C184.011948,53.912800 188.660736,36.683193 200.133316,22.232103 
	C200.718353,21.495161 200.692429,20.273182 201.299728,17.933285 
	C176.473480,31.609453 153.384125,45.481281 131.388474,62.341579 
	C126.140121,66.397293 120.891769,70.453003 115.645638,74.552414 
	C115.645638,74.552414 115.625534,74.590858 115.070183,74.680305 
	C114.727470,75.125328 114.384758,75.570351 113.373421,76.163879 
	C109.855675,79.086639 106.337921,82.009399 102.200935,85.126801 
	C99.760880,87.395714 97.320824,89.664635 94.296997,92.246254 
	C91.208946,95.165817 88.120895,98.085381 84.429985,101.295059 
	C79.637894,106.199463 74.845795,111.103859 69.435028,116.270416 
	C65.183319,121.070534 60.931610,125.870644 56.829418,130.895523 
	C56.829418,130.895523 56.731838,130.643829 56.243656,130.798019 
	C55.966278,131.201370 55.688900,131.604736 54.893600,132.482544 
	C46.986851,143.677719 38.655540,154.603027 31.311909,166.156143 
	C25.750919,174.904755 21.264139,184.383667 20.015715,195.795959 
	C19.732914,197.858978 19.450115,199.921982 18.997705,202.825897 
	C18.720524,208.217972 18.443342,213.610062 18.022760,219.831055 
	C18.403725,222.222198 18.784689,224.613342 19.024776,227.845108 
	C19.738359,231.564407 20.451942,235.283691 21.259708,239.743286 
	C22.958172,244.086670 24.370228,248.569458 26.404762,252.749268 
	C35.124027,270.662354 48.869717,283.293915 67.340340,290.694885 
	C80.204559,295.849426 93.829521,296.125397 107.182404,294.639862 
	C120.140015,293.198364 132.014725,287.830200 142.678467,278.836212 
	C145.822098,275.572479 148.965729,272.308777 152.734009,268.777740 
	C155.100418,265.519104 157.466827,262.260468 160.139389,258.358459 
	C162.702469,253.570419 165.265549,248.782379 167.983902,243.259018 
	C168.360031,241.852310 168.736160,240.445587 169.798279,238.619705 
	C170.706726,227.749374 171.615173,216.879044 172.767746,205.100998 
	C172.459045,191.404327 172.150345,177.707642 171.983063,163.081650 
	C172.258636,152.071442 172.534210,141.061249 172.986053,129.168427 
	C173.270340,125.447731 173.554626,121.727036 173.970154,117.114937 
z"/>
<path fill="#FBD83C" opacity="1.000000" stroke="none" 
	d="
M132.029297,62.115559 
	C153.384125,45.481281 176.473480,31.609453 201.299728,17.933285 
	C200.692429,20.273182 200.718353,21.495161 200.133316,22.232103 
	C188.660736,36.683193 184.011948,53.912800 180.027634,71.406883 
	C178.979813,76.007683 178.165726,80.661720 176.694611,85.728302 
	C174.773743,91.119713 173.402527,96.074127 172.029724,101.358337 
	C172.027023,102.127884 172.025909,102.567619 171.716446,102.876175 
	C168.930176,102.831795 166.452225,102.918610 163.975433,102.605133 
	C163.976273,101.137390 163.975967,100.069939 164.268005,98.739731 
	C165.623703,93.008072 166.687088,87.539154 167.808350,81.772575 
	C166.633560,80.917328 165.316177,79.958267 164.040100,78.625305 
	C169.749039,65.663979 175.416656,53.076546 181.295959,40.018951 
	C177.052917,42.024612 172.915482,43.980350 168.778046,45.936092 
	C168.584686,45.612999 168.391327,45.289909 168.197983,44.966820 
	C169.007446,43.926479 169.816895,42.886135 170.626358,41.845795 
	C170.318604,41.453159 170.010864,41.060520 169.703110,40.667885 
	C158.126434,48.440044 146.549744,56.212204 134.888367,63.817719 
	C134.534866,63.769703 134.266068,63.888332 133.998367,64.003525 
	C133.999466,64.000092 134.007462,63.999336 133.695953,63.960602 
	C132.932724,63.319767 132.481018,62.717663 132.029297,62.115559 
M175.469543,73.101349 
	C179.031891,63.698597 182.594254,54.295849 186.156601,44.893097 
	C185.478882,44.625881 184.801147,44.358662 184.123428,44.091446 
	C179.601242,54.362991 175.079071,64.634537 170.556885,74.906082 
	C171.110916,75.334328 171.664932,75.762573 172.218964,76.190811 
	C173.201218,75.392929 174.183487,74.595047 175.469543,73.101349 
M172.390152,40.203194 
	C172.784973,40.207077 173.180008,40.214699 173.573563,40.194252 
	C173.583893,40.193722 173.589096,39.744949 173.578613,39.744152 
	C173.185699,39.714413 172.790649,39.712837 172.390152,40.203194 
z"/>
<path fill="#E97706" opacity="1.000000" stroke="none" 
	d="
M171.841644,164.010971 
	C172.150345,177.707642 172.459045,191.404327 172.307617,205.689545 
	C171.175644,209.401352 170.503815,212.524628 170.013382,214.804642 
	C167.412766,211.855530 165.349014,208.496658 162.387329,206.415863 
	C158.728790,203.845490 156.309860,201.111786 155.873398,196.544861 
	C155.754166,195.297241 154.237396,194.183182 153.361984,193.007828 
	C152.907776,193.234146 152.453583,193.460464 151.999390,193.686783 
	C151.999390,195.650635 151.664246,197.684006 152.054886,199.566788 
	C154.251785,210.155334 152.032181,220.005829 147.239868,229.409180 
	C145.720490,232.390518 143.729309,235.131409 141.965622,237.554321 
	C142.613434,232.063446 143.249649,227.000565 143.901337,221.513809 
	C143.932327,219.391800 143.947830,217.693649 144.224548,215.834076 
	C144.619049,215.093201 144.752335,214.513763 144.901901,213.471954 
	C144.933594,208.005264 144.948975,203.000931 145.266174,197.737930 
	C145.673889,195.298233 145.779800,193.117218 145.894547,190.623962 
	C145.897476,189.895340 145.891571,189.478943 145.925903,188.656097 
	C145.985397,187.164017 146.004684,186.078369 146.294281,184.745514 
	C146.379852,182.666946 146.195114,180.835571 146.003479,178.672119 
	C146.005341,177.897278 146.014099,177.454514 146.261749,177.009338 
	C146.500641,177.006927 146.978897,176.999161 147.395126,176.984650 
	C148.539246,175.921448 149.809280,174.919907 149.905258,173.816254 
	C150.446472,167.592606 150.705673,161.344421 151.092300,154.554733 
	C152.795029,155.062973 154.373962,155.534241 155.964691,156.467651 
	C156.017609,160.934494 156.058746,164.939194 156.065979,169.399536 
	C156.352158,173.569962 156.672241,177.284760 156.706940,181.273605 
	C155.334671,189.538925 159.838867,193.654755 169.308304,192.298691 
	C168.879959,187.919571 168.443619,183.458801 168.009293,178.559967 
	C168.343613,173.416779 168.675934,168.711655 169.362427,164.004211 
	C170.424957,164.004929 171.133301,164.007950 171.841644,164.010971 
z"/>
<path fill="#A23C16" opacity="1.000000" stroke="none" 
	d="
M142.061813,279.101562 
	C132.014725,287.830200 120.140015,293.198364 107.182404,294.639862 
	C93.829521,296.125397 80.204559,295.849426 67.340340,290.694885 
	C48.869717,283.293915 35.124027,270.662354 26.404762,252.749268 
	C24.370228,248.569458 22.958172,244.086670 21.546043,239.332367 
	C23.537657,238.958771 25.242939,238.996109 27.088276,239.337555 
	C28.117002,241.100418 29.005672,242.559174 29.922157,244.391022 
	C32.279549,248.831360 34.609127,252.898590 37.069080,257.284485 
	C47.989864,271.907928 61.487030,282.351715 79.041588,287.069702 
	C90.724800,290.209686 102.387665,291.485962 114.455276,287.087219 
	C119.221153,285.364288 123.601662,283.670166 128.305725,281.853210 
	C131.733704,280.124664 134.838104,278.518982 138.185913,277.074890 
	C139.640137,277.858185 140.850983,278.479858 142.061813,279.101562 
z"/>
<path fill="#E66806" opacity="1.000000" stroke="none" 
	d="
M141.954025,237.982315 
	C143.729309,235.131409 145.720490,232.390518 147.239868,229.409180 
	C152.032181,220.005829 154.251785,210.155334 152.054886,199.566788 
	C151.664246,197.684006 151.999390,195.650635 151.999390,193.686783 
	C152.453583,193.460464 152.907776,193.234146 153.361984,193.007828 
	C154.237396,194.183182 155.754166,195.297241 155.873398,196.544861 
	C156.309860,201.111786 158.728790,203.845490 162.387329,206.415863 
	C165.349014,208.496658 167.412766,211.855530 170.013382,214.804642 
	C170.503815,212.524628 171.175644,209.401352 172.185547,206.143402 
	C171.615173,216.879044 170.706726,227.749374 169.081985,238.784637 
	C163.233719,236.577515 158.101761,234.205444 152.656418,231.688538 
	C151.968781,233.897873 151.485077,235.451996 150.853363,237.304321 
	C148.473770,239.742508 146.242157,241.882477 143.643768,244.018585 
	C141.508102,244.676910 139.739197,245.339111 138.114532,245.680206 
	C139.490555,242.900177 140.722290,240.441254 141.954025,237.982315 
z"/>
<path fill="#CD580B" opacity="1.000000" stroke="none" 
	d="
M144.010529,244.022430 
	C146.242157,241.882477 148.473770,239.742508 151.127899,237.530426 
	C152.239883,238.281250 152.778580,239.569061 153.643906,239.849716 
	C158.327560,241.368759 163.092026,242.638611 167.828629,243.994324 
	C165.265549,248.782379 162.702469,253.570419 159.607437,258.680115 
	C153.839035,259.148407 152.021408,263.185059 149.681259,267.120544 
	C145.559799,270.476410 141.751160,273.694855 137.942505,276.913300 
	C134.838104,278.518982 131.733704,280.124664 128.109100,281.581146 
	C124.597992,279.940491 121.542381,278.561615 118.649582,276.899384 
	C117.568184,276.278015 116.866257,274.996185 116.368423,273.961487 
	C119.500610,272.941498 122.255661,271.975555 125.392517,271.006409 
	C127.964386,270.891754 130.154465,270.780334 132.307602,270.670776 
	C134.388870,268.292725 136.703049,265.648560 139.382385,262.999634 
	C142.177597,261.422058 144.668015,259.927032 146.946823,258.159210 
	C147.181137,257.977448 146.425064,255.586777 145.655151,255.222992 
	C143.603806,254.253769 141.294022,253.831497 138.800629,253.108765 
	C137.859665,253.575302 136.427689,254.285278 135.031677,254.641006 
	C137.049042,252.022629 139.032883,249.760635 141.010880,247.493515 
	C142.016205,246.341232 143.010986,245.179749 144.010529,244.022430 
z"/>
<path fill="#CD580B" opacity="1.000000" stroke="none" 
	d="
M29.894342,244.017929 
	C29.005672,242.559174 28.117002,241.100418 27.069151,238.960632 
	C25.937635,235.188065 24.965303,232.096558 23.994307,228.584396 
	C23.533459,225.304291 23.071278,222.444839 22.561445,219.290573 
	C21.013929,219.189011 19.590046,219.095566 18.166161,219.002136 
	C18.443342,213.610062 18.720524,208.217972 19.375788,202.279297 
	C21.500114,201.825394 23.246359,201.918106 24.864780,202.314743 
	C24.562098,204.547546 24.387241,206.476410 24.117167,209.455627 
	C28.047873,207.866913 29.567303,202.419327 34.030354,205.426788 
	C34.355724,208.896500 34.687748,211.932770 35.117043,215.194901 
	C35.406013,215.703644 35.664925,215.896088 36.119137,216.291656 
	C36.500046,217.386261 36.752872,218.187286 37.002911,219.406097 
	C36.999447,221.216583 36.998775,222.609268 36.671165,223.858856 
	C34.579239,223.099518 32.814255,222.483292 29.829988,221.441345 
	C31.543274,225.772614 32.776230,228.889603 34.145927,232.325806 
	C37.175838,236.771912 40.069000,240.898788 43.010994,245.367020 
	C49.468945,254.746353 58.198387,261.188599 67.973625,265.770844 
	C76.268364,269.659088 85.298317,271.978912 93.738541,275.278992 
	C84.507469,275.705841 76.425575,272.680878 68.409782,269.001801 
	C54.330997,262.539948 44.751942,249.219070 29.894342,244.017929 
z"/>
<path fill="#E66A09" opacity="1.000000" stroke="none" 
	d="
M34.037006,204.993362 
	C29.567303,202.419327 28.047873,207.866913 24.117167,209.455627 
	C24.387241,206.476410 24.562098,204.547546 24.910233,201.935181 
	C26.566175,196.060287 26.091904,195.457108 20.176403,195.010712 
	C21.264139,184.383667 25.750919,174.904755 31.311909,166.156143 
	C38.655540,154.603027 46.986851,143.677719 55.422192,132.197479 
	C56.211136,131.489548 56.471485,131.066696 56.731834,130.643829 
	C56.731838,130.643829 56.829418,130.895523 57.090443,130.901825 
	C58.247196,131.606110 59.142921,132.304077 59.892811,133.311432 
	C55.396511,139.737396 50.687992,145.635727 46.791378,152.028915 
	C42.472595,159.114761 38.895695,166.652771 34.643562,174.052826 
	C29.687044,180.962418 29.874704,181.757523 36.885799,183.895630 
	C35.941898,190.886002 34.989452,197.939682 34.037006,204.993362 
z"/>
<path fill="#EC8808" opacity="1.000000" stroke="none" 
	d="
M171.912354,163.546310 
	C171.133301,164.007950 170.424957,164.004929 169.358109,163.616806 
	C168.672272,161.821976 168.344955,160.412247 168.029816,158.580124 
	C168.694061,150.104645 169.346146,142.051575 170.005341,133.602020 
	C170.015717,132.150299 170.018982,131.095032 170.370697,130.031906 
	C171.416016,130.033051 172.112885,130.042038 172.809769,130.051025 
	C172.534210,141.061249 172.258636,152.071442 171.912354,163.546310 
z"/>
<path fill="#EA7B09" opacity="1.000000" stroke="none" 
	d="
M60.038651,133.002045 
	C59.142921,132.304077 58.247196,131.606110 57.015686,130.789459 
	C60.931610,125.870644 65.183319,121.070534 70.121521,116.139793 
	C71.919701,116.384827 73.031372,116.760483 74.098793,117.474472 
	C73.370743,119.198517 72.686951,120.584244 71.674591,122.003876 
	C70.232697,123.028259 69.119370,124.018723 67.702377,125.151276 
	C64.945351,127.862923 62.492001,130.432480 60.038651,133.002045 
z"/>
<path fill="#EE9112" opacity="1.000000" stroke="none" 
	d="
M74.143051,117.136147 
	C73.031372,116.760483 71.919701,116.384827 70.430862,116.008713 
	C74.845795,111.103859 79.637894,106.199463 85.153770,101.149216 
	C87.568794,101.004890 89.260033,101.006409 90.920776,101.345154 
	C88.909126,103.768867 86.927963,105.855370 84.605026,107.989906 
	C82.872482,109.183220 81.433830,110.275795 80.102104,111.486038 
	C78.076820,113.326561 76.125679,115.248680 74.143051,117.136147 
z"/>
<path fill="#E05E01" opacity="1.000000" stroke="none" 
	d="
M167.906265,243.626678 
	C163.092026,242.638611 158.327560,241.368759 153.643906,239.849716 
	C152.778580,239.569061 152.239883,238.281250 151.275894,237.232208 
	C151.485077,235.451996 151.968781,233.897873 152.656418,231.688538 
	C158.101761,234.205444 163.233719,236.577515 168.738983,238.994232 
	C168.736160,240.445587 168.360031,241.852310 167.906265,243.626678 
z"/>
<path fill="#F8C732" opacity="1.000000" stroke="none" 
	d="
M131.708893,62.228569 
	C132.481018,62.717663 132.932724,63.319767 133.542084,64.260475 
	C128.799713,68.400253 123.899696,72.201431 118.753799,75.720230 
	C117.553085,75.128136 116.598251,74.818428 115.643417,74.508713 
	C120.891769,70.453003 126.140121,66.397293 131.708893,62.228569 
z"/>
<path fill="#F4B32F" opacity="1.000000" stroke="none" 
	d="
M115.644531,74.530563 
	C116.598251,74.818428 117.553085,75.128136 118.602097,76.019623 
	C114.790031,80.039787 110.883797,83.478180 106.904739,86.555931 
	C105.494659,85.774239 104.157417,85.353195 102.820168,84.932152 
	C106.337921,82.009399 109.855675,79.086639 114.021805,76.054703 
	C114.988640,75.493965 115.307083,75.042412 115.625534,74.590858 
	C115.625534,74.590858 115.645638,74.552414 115.644531,74.530563 
z"/>
<path fill="#B54813" opacity="1.000000" stroke="none" 
	d="
M138.185913,277.074890 
	C141.751160,273.694855 145.559799,270.476410 149.808441,267.398743 
	C150.868729,268.041382 151.489044,268.543213 152.109360,269.045044 
	C148.965729,272.308777 145.822098,275.572479 142.370148,278.968872 
	C140.850983,278.479858 139.640137,277.858185 138.185913,277.074890 
z"/>
<path fill="#B54813" opacity="1.000000" stroke="none" 
	d="
M23.992971,229.005035 
	C24.965303,232.096558 25.937635,235.188065 26.929092,238.656525 
	C25.242939,238.996109 23.537657,238.958771 21.498951,238.962219 
	C20.451942,235.283691 19.738359,231.564407 19.422447,227.460815 
	C21.211071,227.719376 22.602022,228.362198 23.992971,229.005035 
z"/>
<path fill="#F2A92C" opacity="1.000000" stroke="none" 
	d="
M102.510551,85.029480 
	C104.157417,85.353195 105.494659,85.774239 106.610001,86.722733 
	C103.595222,89.852142 100.802353,92.454124 97.763214,95.042587 
	C97.516953,95.029068 97.023857,95.028160 96.896454,94.732903 
	C96.139618,93.602951 95.510193,92.768257 94.880775,91.933556 
	C97.320824,89.664635 99.760880,87.395714 102.510551,85.029480 
z"/>
<path fill="#EF9A19" opacity="1.000000" stroke="none" 
	d="
M94.588882,92.089905 
	C95.510193,92.768257 96.139618,93.602951 96.699722,94.991982 
	C94.737358,97.366859 92.844315,99.187393 90.951271,101.007927 
	C89.260033,101.006409 87.568794,101.004890 85.455200,101.004166 
	C88.120895,98.085381 91.208946,95.165817 94.588882,92.089905 
z"/>
<path fill="#F4B32F" opacity="1.000000" stroke="none" 
	d="
M172.024780,103.007362 
	C172.025909,102.567619 172.027023,102.127884 172.329758,101.371857 
	C173.365906,101.364532 174.100464,101.673485 174.835007,101.982445 
	C174.546722,107.026611 174.258438,112.070770 173.605835,117.514526 
	C172.495163,117.276680 171.748795,116.639244 171.002106,115.572662 
	C171.191101,113.376114 171.415192,111.611588 171.561066,109.840614 
	C171.748489,107.565567 171.873108,105.285355 172.024780,103.007362 
z"/>
<path fill="#C64C12" opacity="1.000000" stroke="none" 
	d="
M23.994307,228.584396 
	C22.602022,228.362198 21.211071,227.719376 19.492886,227.040512 
	C18.784689,224.613342 18.403725,222.222198 18.094461,219.416595 
	C19.590046,219.095566 21.013929,219.189011 22.561445,219.290573 
	C23.071278,222.444839 23.533459,225.304291 23.994307,228.584396 
z"/>
<path fill="#C64C12" opacity="1.000000" stroke="none" 
	d="
M152.421692,268.911377 
	C151.489044,268.543213 150.868729,268.041382 150.121246,267.261322 
	C152.021408,263.185059 153.839035,259.148407 159.454376,259.001831 
	C157.466827,262.260468 155.100418,265.519104 152.421692,268.911377 
z"/>
<path fill="#E05E01" opacity="1.000000" stroke="none" 
	d="
M20.096058,195.403336 
	C26.091904,195.457108 26.566175,196.060287 25.038055,201.631256 
	C23.246359,201.918106 21.500114,201.825394 19.460594,201.858841 
	C19.450115,199.921982 19.732914,197.858978 20.096058,195.403336 
z"/>
<path fill="#F2A92C" opacity="1.000000" stroke="none" 
	d="
M171.002441,116.001801 
	C171.748795,116.639244 172.495163,117.276680 173.540222,117.960228 
	C173.554626,121.727036 173.270340,125.447731 172.897919,129.609726 
	C172.112885,130.042038 171.416016,130.033051 170.362518,129.598862 
	C170.010620,125.782654 170.015320,122.391632 169.902069,118.713707 
	C170.190216,117.618469 170.596329,116.810135 171.002441,116.001801 
z"/>
<path fill="#F8C732" opacity="1.000000" stroke="none" 
	d="
M174.922607,101.575119 
	C174.100464,101.673485 173.365906,101.364532 172.331329,101.042053 
	C173.402527,96.074127 174.773743,91.119713 176.500916,86.085693 
	C176.241302,91.059990 175.625748,96.113892 174.922607,101.575119 
z"/>
<path fill="#F8C732" opacity="1.000000" stroke="none" 
	d="
M115.347855,74.635582 
	C115.307083,75.042412 114.988640,75.493965 114.356125,75.980453 
	C114.384758,75.570351 114.727470,75.125328 115.347855,74.635582 
z"/>
<path fill="#EA7B09" opacity="1.000000" stroke="none" 
	d="
M56.487747,130.720917 
	C56.471485,131.066696 56.211136,131.489548 55.681152,131.960251 
	C55.688900,131.604736 55.966278,131.201370 56.487747,130.720917 
z"/>
<path fill="#FCD846" opacity="1.000000" stroke="none" 
	d="
M98.009483,95.056107 
	C100.802353,92.454124 103.595222,89.852142 106.682831,87.083374 
	C110.883797,83.478180 114.790031,80.039787 118.847977,76.302002 
	C123.899696,72.201431 128.799713,68.400253 133.853607,64.299210 
	C134.007462,63.999336 133.999466,64.000092 134.242325,63.997292 
	C134.485184,63.994492 134.973068,63.984367 134.973068,63.984364 
	C146.549744,56.212204 158.126434,48.440044 169.703110,40.667885 
	C170.010864,41.060520 170.318604,41.453159 170.626358,41.845795 
	C169.816895,42.886135 169.007446,43.926479 168.197983,44.966820 
	C168.391327,45.289909 168.584686,45.612999 168.778046,45.936092 
	C172.915482,43.980350 177.052917,42.024612 181.295959,40.018951 
	C175.416656,53.076546 169.749039,65.663979 163.999664,78.991043 
	C162.275742,83.819359 160.633606,87.908043 158.617065,91.992432 
	C157.290161,91.759041 156.311966,91.257370 155.389206,91.344284 
	C148.456146,91.997269 142.425369,89.908424 137.028381,85.645706 
	C135.402466,84.361504 133.671982,83.209671 132.136536,81.693527 
	C134.519333,78.257568 136.755020,75.125275 138.995316,71.996338 
	C138.999924,71.999702 138.995621,71.992798 139.215607,71.891960 
	C139.714066,71.595062 139.885376,71.329796 140.099670,70.695312 
	C144.183990,65.943245 148.118179,61.491184 152.269684,56.904419 
	C152.463455,56.377022 152.439911,55.984329 152.416367,55.591637 
	C152.252579,56.037491 152.088791,56.483345 151.561554,56.931389 
	C145.794601,61.286816 140.391083,65.640053 134.769562,70.104256 
	C134.281342,70.415558 134.086517,70.672951 133.985352,70.993675 
	C134.003647,70.999962 133.988403,70.964333 133.645966,71.008682 
	C130.524902,73.698547 127.746277,76.344055 124.980270,78.993408 
	C124.992889,78.997253 124.985031,78.965294 124.642616,79.011345 
	C117.212318,85.399437 110.124435,91.741478 102.839096,97.824463 
	C101.421371,96.131264 96.778336,101.015511 98.009483,95.056107 
M154.520767,54.422836 
	C154.837173,54.135075 155.153595,53.847317 155.470001,53.559555 
	C155.355408,53.454788 155.158127,53.245422 155.138580,53.260868 
	C154.821838,53.511314 154.527649,53.790291 154.520767,54.422836 
M166.412231,46.483086 
	C166.412231,46.483086 166.523849,46.416744 166.412231,46.483086 
z"/>
<path fill="#F4B32F" opacity="1.000000" stroke="none" 
	d="
M170.020020,119.000610 
	C170.015320,122.391632 170.010620,125.782654 170.014099,129.606720 
	C170.018982,131.095032 170.015717,132.150299 169.656982,133.638260 
	C168.152618,135.132278 167.024170,136.216843 165.850616,137.250153 
	C163.290848,139.504059 161.314178,142.858139 157.048080,141.571930 
	C157.330200,138.787521 157.630264,136.415344 157.955994,133.585526 
	C157.299988,127.743889 160.640335,121.735031 155.361588,117.111412 
	C154.945389,118.844833 154.674561,120.734245 154.025909,122.483559 
	C153.196091,124.721512 152.061722,126.846542 151.035278,128.767899 
	C150.999512,128.347092 150.987061,128.178604 150.980865,127.757126 
	C150.983307,127.335442 150.979492,127.166756 151.029907,126.598122 
	C152.051285,120.802246 153.018433,115.406311 153.992981,109.659096 
	C154.337936,108.206543 154.675507,107.105278 155.179047,105.913116 
	C155.407516,105.713844 155.548965,105.548004 155.519028,105.506889 
	C155.378647,105.313988 155.191132,105.155396 155.050476,104.641769 
	C155.393890,103.206406 155.707245,102.113815 156.369934,100.956924 
	C158.740952,98.882133 159.127258,94.591393 163.298676,95.884186 
	C163.545166,97.019501 163.760422,98.010986 163.975677,99.002480 
	C163.975967,100.069939 163.976273,101.137390 163.641266,102.793198 
	C162.543198,107.121979 161.521866,110.839035 161.180283,114.617538 
	C161.081970,115.705017 162.717834,117.504707 163.958740,118.026810 
	C165.791321,118.797867 167.981888,118.718079 170.020020,119.000610 
z"/>
<path fill="#F8C732" opacity="1.000000" stroke="none" 
	d="
M169.902069,118.713715 
	C167.981888,118.718079 165.791321,118.797867 163.958740,118.026810 
	C162.717834,117.504707 161.081970,115.705017 161.180283,114.617538 
	C161.521866,110.839035 162.543198,107.121979 163.640137,103.193481 
	C166.452225,102.918610 168.930176,102.831795 171.716431,102.876175 
	C171.873108,105.285355 171.748489,107.565567 171.561066,109.840614 
	C171.415192,111.611588 171.191101,113.376114 171.002106,115.572655 
	C170.596329,116.810135 170.190216,117.618469 169.902069,118.713715 
z"/>
<path fill="#FCD846" opacity="1.000000" stroke="none" 
	d="
M175.317657,73.449257 
	C174.183487,74.595047 173.201218,75.392929 172.218964,76.190811 
	C171.664932,75.762573 171.110916,75.334328 170.556885,74.906082 
	C175.079071,64.634537 179.601242,54.362991 184.123428,44.091446 
	C184.801147,44.358662 185.478882,44.625881 186.156601,44.893097 
	C182.594254,54.295849 179.031891,63.698597 175.317657,73.449257 
z"/>
<path fill="#F8C732" opacity="1.000000" stroke="none" 
	d="
M164.268005,98.739731 
	C163.760422,98.010986 163.545166,97.019501 163.298676,95.884186 
	C159.127258,94.591393 158.740952,98.882133 156.400513,100.590103 
	C157.051682,97.523956 158.021561,94.760345 158.991455,91.996735 
	C160.633606,87.908043 162.275742,83.819359 163.958344,79.364944 
	C165.316177,79.958267 166.633560,80.917328 167.808350,81.772575 
	C166.687088,87.539154 165.623703,93.008072 164.268005,98.739731 
z"/>
<path fill="#FCD846" opacity="1.000000" stroke="none" 
	d="
M172.393021,39.955326 
	C172.790649,39.712837 173.185699,39.714413 173.578613,39.744152 
	C173.589096,39.744949 173.583893,40.193722 173.573563,40.194252 
	C173.180008,40.214699 172.784973,40.207077 172.393021,39.955326 
z"/>
<path fill="#F8C732" opacity="1.000000" stroke="none" 
	d="
M134.888367,63.817719 
	C134.973068,63.984367 134.485184,63.994492 134.241226,64.000732 
	C134.266068,63.888332 134.534866,63.769703 134.888367,63.817719 
z"/>
<path fill="#EC974A" opacity="1.000000" stroke="none" 
	d="
M144.964355,197.996597 
	C144.948975,203.000931 144.933594,208.005264 144.622192,213.524414 
	C144.205246,214.691315 144.084290,215.343414 143.963348,215.995514 
	C143.947830,217.693649 143.932327,219.391800 143.566544,221.599564 
	C140.301544,228.129166 138.070251,234.634979 134.249054,240.010590 
	C131.354340,244.082809 126.909416,248.057800 122.307716,249.691910 
	C114.042099,252.627090 105.093689,247.625626 100.614540,239.161850 
	C94.929504,228.419464 95.703766,216.582596 95.286835,204.724792 
	C97.009399,196.229263 98.378044,188.001282 99.894974,179.800735 
	C100.809158,174.858627 101.680161,169.879868 103.075325,165.063797 
	C104.366196,160.607758 106.329132,156.346405 108.262459,152.223419 
	C108.002060,154.385513 107.281097,156.293976 106.981422,158.266449 
	C105.508888,167.958710 104.537941,177.744644 102.648476,187.351669 
	C100.338913,199.094543 103.345062,210.449585 104.265640,221.954865 
	C104.352570,223.041351 106.034508,224.000214 106.977425,225.348022 
	C106.980072,226.117340 106.981216,226.556931 106.745209,227.175919 
	C106.851555,229.163818 104.774269,232.253281 108.978470,232.266632 
	C108.980568,232.513199 108.991486,233.006241 109.034142,233.326172 
	C109.714607,234.100189 110.352417,234.554276 110.995117,235.004181 
	C111.000000,235.000000 110.991150,235.010223 111.005196,235.402039 
	C112.884972,239.356094 114.901649,238.987595 117.347839,236.022675 
	C118.117516,236.019958 118.557327,236.018768 119.212494,236.279144 
	C121.302719,235.790955 123.724579,235.546173 124.960876,234.206940 
	C131.444687,227.183395 135.500732,218.746353 136.910172,209.349884 
	C138.924927,195.918015 140.116287,182.361633 142.185318,168.939529 
	C142.799408,164.955811 142.518387,159.841248 147.857758,158.399323 
	C147.912582,160.875122 147.918289,162.916016 147.610413,165.019775 
	C147.196091,166.053116 147.095367,167.023605 146.982056,168.324142 
	C146.955673,169.094360 146.941879,169.534515 146.662506,170.123505 
	C146.272247,172.518799 146.147537,174.765289 146.022858,177.011765 
	C146.014099,177.454514 146.005341,177.897278 145.986130,178.653137 
	C145.975662,178.966263 145.924744,178.960861 145.638214,179.014679 
	C145.045959,179.392456 144.740234,179.716415 144.434509,180.040375 
	C144.925018,180.380676 145.415512,180.720978 145.916992,181.421341 
	C145.919876,182.499878 145.911774,183.218353 145.552094,184.025375 
	C143.297867,186.058517 143.150558,187.760071 145.885666,189.062561 
	C145.891571,189.478943 145.897476,189.895340 145.575516,190.696854 
	C145.153214,193.386856 145.058777,195.691727 144.964355,197.996597 
z"/>
<path fill="#E7872F" opacity="1.000000" stroke="none" 
	d="
M94.995377,205.003922 
	C95.703766,216.582596 94.929504,228.419464 100.614540,239.161850 
	C105.093689,247.625626 114.042099,252.627090 122.307716,249.691910 
	C126.909416,248.057800 131.354340,244.082809 134.249054,240.010590 
	C138.070251,234.634979 140.301544,228.129166 143.551086,222.023438 
	C143.249649,227.000565 142.613434,232.063446 141.965622,237.554321 
	C140.722290,240.441254 139.490555,242.900177 137.810257,245.819580 
	C131.365402,251.051254 125.591599,256.340759 116.583603,255.009674 
	C115.049278,254.787567 113.722542,254.895081 112.810867,254.331360 
	C105.173233,249.608643 97.611801,244.762680 89.913651,239.740021 
	C89.597321,239.258881 89.335335,239.077347 89.006805,238.990784 
	C88.999695,239.000000 89.017868,238.986008 88.878967,238.669952 
	C86.952415,235.227753 85.164764,232.101593 83.662460,229.474411 
	C81.828598,231.909256 79.911774,234.454239 77.633835,236.996490 
	C69.175758,237.332779 61.078800,237.671814 52.700577,237.872009 
	C51.903042,236.862061 51.386768,235.990952 51.273460,235.078583 
	C55.783848,233.359421 59.891270,231.681549 64.370544,229.995163 
	C65.498573,228.991150 66.254745,227.995636 67.118820,226.743912 
	C67.492111,226.000793 67.757500,225.513870 68.385605,224.981750 
	C69.891548,223.889328 71.490112,223.057404 72.103630,221.759750 
	C75.905930,213.717575 77.800209,204.703659 83.998009,197.904404 
	C85.719315,196.016037 88.331200,193.344620 90.236519,193.568497 
	C93.645195,193.969009 94.782143,197.243484 94.231392,200.866470 
	C94.032227,202.176636 94.715027,203.620865 94.995377,205.003922 
z"/>
<path fill="#F2A92C" opacity="1.000000" stroke="none" 
	d="
M157.066025,141.984177 
	C161.314178,142.858139 163.290848,139.504059 165.850616,137.250153 
	C167.024170,136.216843 168.152618,135.132278 169.649872,134.034729 
	C169.346146,142.051575 168.694061,150.104645 167.743195,158.709259 
	C166.566040,159.976639 165.220444,160.523270 164.889359,161.437363 
	C163.378479,165.608932 160.528000,168.200882 156.099884,168.943893 
	C156.058746,164.939194 156.017609,160.934494 155.998444,156.047974 
	C156.368958,150.772156 156.717484,146.378159 157.066025,141.984177 
M166.266571,148.817398 
	C166.379669,148.973892 166.492767,149.130386 166.605865,149.286880 
	C166.583145,149.069183 166.560410,148.851501 166.266571,148.817398 
M165.589691,157.517059 
	C165.589691,157.517059 165.479706,157.582016 165.589691,157.517059 
M158.517227,144.410385 
	C158.517227,144.410385 158.583862,144.522095 158.517227,144.410385 
z"/>
<path fill="#EF9A19" opacity="1.000000" stroke="none" 
	d="
M156.065979,169.399536 
	C160.528000,168.200882 163.378479,165.608932 164.889359,161.437363 
	C165.220444,160.523270 166.566040,159.976639 167.731033,159.131653 
	C168.344955,160.412247 168.672272,161.821976 169.003937,163.619110 
	C168.675934,168.711655 168.343613,173.416779 167.718475,178.764771 
	C164.527451,183.736786 160.590958,181.261063 156.992310,180.999557 
	C156.672241,177.284760 156.352158,173.569962 156.065979,169.399536 
z"/>
<path fill="#EC8808" opacity="1.000000" stroke="none" 
	d="
M157.048080,141.571930 
	C156.717484,146.378159 156.368958,150.772156 155.986664,155.585831 
	C154.373962,155.534241 152.795029,155.062973 151.092300,154.554733 
	C150.705673,161.344421 150.446472,167.592606 149.905258,173.816254 
	C149.809280,174.919907 148.539246,175.921448 147.402695,176.546173 
	C146.972046,174.073044 146.950073,172.023865 146.928101,169.974686 
	C146.941879,169.534515 146.955673,169.094360 147.251556,168.121155 
	C147.663773,166.711044 147.793900,165.833969 147.924011,164.956909 
	C147.918289,162.916016 147.912582,160.875122 147.902405,158.154907 
	C147.897949,157.475571 147.935974,156.980255 148.225647,156.763824 
	C148.614395,155.357025 148.713486,154.166656 148.850906,152.577332 
	C148.903687,151.110077 148.918121,150.041779 149.197922,148.827972 
	C149.603897,148.117706 149.744507,147.552963 149.908646,146.652832 
	C149.933289,145.869247 149.934418,145.421066 150.241119,144.725159 
	C150.685852,142.326126 150.825012,140.174805 151.007355,137.676132 
	C151.369751,136.221100 151.688980,135.113434 152.250183,133.850708 
	C154.304886,133.811493 156.117615,133.927338 157.930328,134.043182 
	C157.630264,136.415344 157.330200,138.787521 157.048080,141.571930 
z"/>
<path fill="#EC8808" opacity="1.000000" stroke="none" 
	d="
M156.706940,181.273605 
	C160.590958,181.261063 164.527451,183.736786 167.716476,179.202835 
	C168.443619,183.458801 168.879959,187.919571 169.308304,192.298691 
	C159.838867,193.654755 155.334671,189.538925 156.706940,181.273605 
z"/>
<path fill="#E7872F" opacity="1.000000" stroke="none" 
	d="
M145.266159,197.737930 
	C145.058777,195.691727 145.153214,193.386856 145.566681,191.009094 
	C145.779800,193.117218 145.673889,195.298233 145.266159,197.737930 
z"/>
<path fill="#E7872F" opacity="1.000000" stroke="none" 
	d="
M145.925903,188.656097 
	C143.150558,187.760071 143.297867,186.058517 145.590271,184.288818 
	C145.994675,184.640060 146.009323,184.816391 146.023956,184.992737 
	C146.004684,186.078369 145.985397,187.164017 145.925903,188.656097 
z"/>
<path fill="#E7872F" opacity="1.000000" stroke="none" 
	d="
M146.662521,170.123505 
	C146.950073,172.023865 146.972046,174.073044 146.986465,176.560699 
	C146.978897,176.999161 146.500641,177.006927 146.261749,177.009338 
	C146.147537,174.765289 146.272247,172.518799 146.662521,170.123505 
z"/>
<path fill="#EC8808" opacity="1.000000" stroke="none" 
	d="
M146.294281,184.745514 
	C146.009323,184.816391 145.994675,184.640060 145.941864,184.200272 
	C145.911774,183.218353 145.919876,182.499878 145.948608,181.071411 
	C145.954422,179.894577 145.939575,179.427719 145.924744,178.960861 
	C145.924744,178.960861 145.975662,178.966263 145.993011,178.985229 
	C146.195114,180.835571 146.379852,182.666946 146.294281,184.745514 
z"/>
<path fill="#E7872F" opacity="1.000000" stroke="none" 
	d="
M144.224548,215.834076 
	C144.084290,215.343414 144.205246,214.691315 144.605896,213.986771 
	C144.752335,214.513763 144.619049,215.093201 144.224548,215.834076 
z"/>
<path fill="#CF6609" opacity="1.000000" stroke="none" 
	d="
M29.922157,244.391022 
	C44.751942,249.219070 54.330997,262.539948 68.409782,269.001801 
	C76.425575,272.680878 84.507469,275.705841 94.206665,275.277466 
	C101.956566,274.665009 108.973938,274.340240 115.991302,274.015503 
	C116.866257,274.996185 117.568184,276.278015 118.649582,276.899384 
	C121.542381,278.561615 124.597992,279.940491 127.785545,281.704041 
	C123.601662,283.670166 119.221153,285.364288 114.381638,286.716125 
	C112.740326,285.595215 111.637222,284.329712 110.361954,284.122223 
	C104.879250,283.230011 99.284210,282.962952 93.842888,281.894043 
	C78.688744,278.917084 64.352989,274.027588 51.773891,264.511810 
	C47.418461,261.217041 41.916805,259.437500 36.938705,256.965820 
	C34.609127,252.898590 32.279549,248.831360 29.922157,244.391022 
z"/>
<path fill="#D67606" opacity="1.000000" stroke="none" 
	d="
M37.069080,257.284485 
	C41.916805,259.437500 47.418461,261.217041 51.773891,264.511810 
	C64.352989,274.027588 78.688744,278.917084 93.842888,281.894043 
	C99.284210,282.962952 104.879250,283.230011 110.361954,284.122223 
	C111.637222,284.329712 112.740326,285.595215 113.996277,286.744995 
	C102.387665,291.485962 90.724800,290.209686 79.041588,287.069702 
	C61.487030,282.351715 47.989864,271.907928 37.069080,257.284485 
z"/>
<path fill="#CF630A" opacity="1.000000" stroke="none" 
	d="
M50.870495,235.119843 
	C51.386768,235.990952 51.903042,236.862061 52.857796,238.175934 
	C56.527554,240.403458 59.758827,242.188232 63.263878,244.267914 
	C68.537071,246.299408 73.594002,243.725647 79.186935,246.563583 
	C87.223083,250.641235 96.670273,252.049210 105.616737,254.167740 
	C109.268814,255.032562 113.186653,254.775070 116.983582,255.028183 
	C125.591599,256.340759 131.365402,251.051254 137.665985,246.140686 
	C139.739197,245.339111 141.508102,244.676910 143.643784,244.018585 
	C143.010986,245.179749 142.016205,246.341232 141.010880,247.493515 
	C139.032883,249.760635 137.049042,252.022629 134.865479,254.886261 
	C134.108856,255.654343 133.554398,255.822906 132.827271,255.764587 
	C132.103668,256.025940 131.552750,256.514191 130.825485,257.260620 
	C130.085709,258.329498 129.522278,259.140198 128.541565,259.957214 
	C126.974319,260.056335 125.758110,259.938080 124.684715,260.274902 
	C114.794228,263.378479 104.916336,262.474182 94.970665,260.526581 
	C84.996246,258.573334 74.972229,256.873322 64.623871,255.005707 
	C59.525578,251.289795 54.773380,247.630478 49.880188,243.665680 
	C46.840626,240.226562 43.942062,237.092926 40.994373,233.604828 
	C39.629539,230.167572 38.313824,227.084763 36.998108,224.001953 
	C36.998775,222.609268 36.999447,221.216583 37.330761,219.435059 
	C39.273529,220.043579 40.885651,221.040939 42.599503,222.067963 
	C42.701237,222.097610 42.910797,222.113586 42.950317,222.456879 
	C43.983139,224.540329 44.976440,226.280472 45.999756,228.343842 
	C46.425411,229.429459 46.821053,230.191818 47.295631,231.254730 
	C48.539871,232.743454 49.705185,233.931656 50.870495,235.119843 
z"/>
<path fill="#A43C16" opacity="1.000000" stroke="none" 
	d="
M50.021179,243.971146 
	C54.773380,247.630478 59.525578,251.289795 64.687866,255.343811 
	C74.191994,262.714844 84.956879,264.674591 95.930679,265.994843 
	C103.424362,266.896393 111.200020,264.052277 118.499138,267.687775 
	C118.903732,267.889282 119.584419,267.995941 119.926651,267.792908 
	C123.782936,265.504974 124.300720,268.392059 125.010719,271.009613 
	C122.255661,271.975555 119.500610,272.941498 116.368423,273.961456 
	C108.973938,274.340240 101.956566,274.665009 94.471077,274.991272 
	C85.298317,271.978912 76.268364,269.659088 67.973625,265.770844 
	C58.198387,261.188599 49.468945,254.746353 43.218391,245.105835 
	C45.591705,244.325882 47.806442,244.148514 50.021179,243.971146 
z"/>
<path fill="#B54813" opacity="1.000000" stroke="none" 
	d="
M125.392517,271.006409 
	C124.300720,268.392059 123.782936,265.504974 119.926651,267.792908 
	C119.584419,267.995941 118.903732,267.889282 118.499138,267.687775 
	C111.200020,264.052277 103.424362,266.896393 95.930679,265.994843 
	C84.956879,264.674591 74.191994,262.714844 65.033951,255.400406 
	C74.972229,256.873322 84.996246,258.573334 94.970665,260.526581 
	C104.916336,262.474182 114.794228,263.378479 124.684715,260.274902 
	C125.758110,259.938080 126.974319,260.056335 128.874268,260.134186 
	C132.755234,261.204681 135.886246,262.104523 139.017242,263.004364 
	C136.703049,265.648560 134.388870,268.292725 132.307602,270.670776 
	C130.154465,270.780334 127.964386,270.891754 125.392517,271.006409 
z"/>
<path fill="#C64C12" opacity="1.000000" stroke="none" 
	d="
M139.382385,262.999634 
	C135.886246,262.104523 132.755234,261.204681 129.291534,260.127869 
	C129.522278,259.140198 130.085709,258.329498 131.123779,257.238770 
	C132.065598,256.636322 132.532776,256.313904 132.999939,255.991486 
	C133.554398,255.822906 134.108856,255.654343 134.829529,255.240509 
	C136.427689,254.285278 137.859665,253.575302 138.800629,253.108765 
	C141.294022,253.831497 143.603806,254.253769 145.655151,255.222992 
	C146.425064,255.586777 147.181137,257.977448 146.946823,258.159210 
	C144.668015,259.927032 142.177597,261.422058 139.382385,262.999634 
z"/>
<path fill="#EA7B09" opacity="1.000000" stroke="none" 
	d="
M42.497772,222.038300 
	C40.885651,221.040939 39.273529,220.043579 37.333553,219.017273 
	C36.752872,218.187286 36.500046,217.386261 36.019073,216.068497 
	C35.595798,215.275574 35.338745,215.081345 35.019768,214.969040 
	C34.687748,211.932770 34.355724,208.896500 34.030354,205.426788 
	C34.989452,197.939682 35.941898,190.886002 36.885799,183.895630 
	C29.874704,181.757523 29.687044,180.962418 34.948399,174.180054 
	C37.090214,174.845871 38.575008,175.443420 40.041267,176.445358 
	C39.696651,179.383499 39.370571,181.917267 38.986191,184.904068 
	C40.997414,184.085602 42.115059,183.630768 43.214294,183.526489 
	C43.072681,184.803391 42.949486,185.729706 42.568768,186.954010 
	C39.420643,196.402603 39.018234,205.687927 40.799477,215.461792 
	C41.362553,217.900696 41.930164,219.969498 42.497772,222.038300 
z"/>
<path fill="#B54813" opacity="1.000000" stroke="none" 
	d="
M49.880188,243.665680 
	C47.806442,244.148514 45.591705,244.325882 43.169563,244.764465 
	C40.069000,240.898788 37.175838,236.771912 34.461761,232.299881 
	C36.775066,232.622910 38.909283,233.291092 41.043499,233.959290 
	C43.942062,237.092926 46.840626,240.226562 49.880188,243.665680 
z"/>
<path fill="#C64C12" opacity="1.000000" stroke="none" 
	d="
M40.994377,233.604828 
	C38.909283,233.291092 36.775066,232.622910 34.325016,231.980652 
	C32.776230,228.889603 31.543274,225.772614 29.829988,221.441345 
	C32.814255,222.483292 34.579239,223.099518 36.671165,223.858856 
	C38.313824,227.084763 39.629539,230.167572 40.994377,233.604828 
z"/>
<path fill="#CF630A" opacity="1.000000" stroke="none" 
	d="
M35.117043,215.194901 
	C35.338745,215.081345 35.595798,215.275574 35.890991,215.774933 
	C35.664925,215.896088 35.406013,215.703644 35.117043,215.194901 
z"/>
<path fill="#EE9112" opacity="1.000000" stroke="none" 
	d="
M40.059803,176.040970 
	C38.575008,175.443420 37.090214,174.845871 35.300583,174.121124 
	C38.895695,166.652771 42.472595,159.114761 46.791378,152.028915 
	C50.687992,145.635727 55.396511,139.737396 59.892811,133.311432 
	C62.492001,130.432480 64.945351,127.862923 67.695374,125.519119 
	C67.126114,127.493225 66.408676,129.336472 65.364204,130.970688 
	C62.983349,134.695892 60.442154,138.318588 57.695770,142.178589 
	C54.612614,147.239273 51.799797,152.104279 48.713120,157.177765 
	C46.295349,162.596283 44.151440,167.806351 41.751976,173.194992 
	C41.017555,174.262695 40.538681,175.151840 40.059803,176.040970 
z"/>
<path fill="#F2AA31" opacity="1.000000" stroke="none" 
	d="
M57.966106,141.982941 
	C60.442154,138.318588 62.983349,134.695892 65.364204,130.970688 
	C66.408676,129.336472 67.126114,127.493225 67.999039,125.377037 
	C69.119370,124.018723 70.232697,123.028259 71.639435,122.362930 
	C71.666710,123.935463 71.400574,125.182846 71.064491,126.758057 
	C74.607224,125.359230 77.390602,124.260231 80.085449,123.486183 
	C68.065720,138.258148 57.132973,153.383011 48.199799,170.174149 
	C45.893391,171.162933 43.950462,172.089676 42.007530,173.016418 
	C44.151440,167.806351 46.295349,162.596283 48.720085,157.498260 
	C49.129852,158.187332 49.258793,158.764374 49.532692,159.990143 
	C52.530785,156.407608 55.398148,153.481766 57.638199,150.135910 
	C59.242096,147.740250 59.752705,144.774719 57.966106,141.982941 
z"/>
<path fill="#F4B32F" opacity="1.000000" stroke="none" 
	d="
M80.173988,123.161240 
	C77.390602,124.260231 74.607224,125.359230 71.064491,126.758057 
	C71.400574,125.182846 71.666710,123.935463 71.968002,122.329018 
	C72.686951,120.584244 73.370743,119.198517 74.098793,117.474472 
	C76.125679,115.248680 78.076820,113.326561 80.102104,111.486038 
	C81.433830,110.275795 82.872482,109.183220 84.653503,108.330414 
	C86.055023,109.188583 87.013481,110.051109 88.091293,110.242920 
	C89.363907,110.469376 90.739716,110.115997 92.009804,110.334579 
	C91.938652,111.084488 91.928482,111.513809 91.951653,111.973053 
	C91.985001,112.002968 91.943054,111.923874 91.593834,111.912155 
	C88.838196,114.269341 86.431786,116.638245 83.799416,119.114967 
	C83.385239,119.492348 83.197021,119.761909 83.003021,120.014557 
	C82.997238,119.997643 83.031540,120.007736 82.787460,120.143951 
	C82.384315,120.610725 82.225266,120.941277 82.013023,121.461769 
	C81.812912,121.891716 81.600914,122.036293 81.040817,122.151894 
	C80.520897,122.510620 80.284004,122.802902 80.090530,123.089233 
	C80.133942,123.083275 80.173988,123.161240 80.173988,123.161240 
z"/>
<path fill="#F8C549" opacity="1.000000" stroke="none" 
	d="
M92.070786,110.013992 
	C90.739716,110.115997 89.363907,110.469376 88.091293,110.242920 
	C87.013481,110.051109 86.055023,109.188583 84.995277,108.282364 
	C86.927963,105.855370 88.909126,103.768867 90.920776,101.345154 
	C92.844315,99.187393 94.737358,97.366859 96.827126,95.287239 
	C97.023857,95.028160 97.516953,95.029068 97.763214,95.042587 
	C96.778336,101.015511 101.421371,96.131264 102.687210,98.118553 
	C99.461517,102.417862 96.190231,106.164024 92.708237,109.946922 
	C92.497513,109.983658 92.070786,110.014000 92.070786,110.013992 
z"/>
<path fill="#FDE78B" opacity="1.000000" stroke="none" 
	d="
M92.918961,109.910187 
	C96.190231,106.164024 99.461517,102.417862 102.884674,98.377609 
	C110.124435,91.741478 117.212318,85.399437 124.648964,79.380646 
	C124.092674,81.210732 123.335732,82.834854 122.253593,84.201462 
	C119.486053,87.696548 116.194923,90.831062 113.783722,94.545090 
	C102.261353,112.293327 90.546837,129.938828 79.714874,148.106323 
	C71.084366,162.581497 63.762444,177.831177 55.590382,192.587936 
	C51.721836,199.573593 47.223679,206.210556 42.738686,212.773056 
	C42.378326,211.744965 41.965576,210.799561 42.252831,210.177261 
	C44.658875,204.964737 47.414677,199.904480 49.635105,194.617737 
	C52.625500,187.497772 55.233192,180.217087 58.043526,172.651428 
	C59.342976,169.971848 60.568958,167.626404 61.870941,165.323929 
	C68.862450,152.959763 75.886818,140.614136 82.870361,128.245483 
	C85.930664,122.825310 88.920967,117.365616 91.943054,111.923874 
	C91.943054,111.923874 91.985001,112.002968 92.259644,111.962906 
	C92.662514,111.251968 92.790741,110.581078 92.918961,109.910187 
z"/>
<path fill="#FBDA74" opacity="1.000000" stroke="none" 
	d="
M43.010773,213.005508 
	C47.223679,206.210556 51.721836,199.573593 55.590382,192.587936 
	C63.762444,177.831177 71.084366,162.581497 79.714874,148.106323 
	C90.546837,129.938828 102.261353,112.293327 113.783722,94.545090 
	C116.194923,90.831062 119.486053,87.696548 122.253593,84.201462 
	C123.335732,82.834854 124.092674,81.210732 124.991379,79.334595 
	C124.985031,78.965294 124.992889,78.997253 125.349403,78.995438 
	C128.466751,76.317184 131.227570,73.640762 133.988403,70.964333 
	C133.988403,70.964333 134.003647,70.999962 134.323975,71.000076 
	C135.095245,70.998482 135.546204,70.996780 136.202240,71.257309 
	C137.268433,71.677353 138.129578,71.835167 138.990707,71.992973 
	C136.755020,75.125275 134.519333,78.257568 132.142090,81.694580 
	C132.000549,81.999290 131.997482,81.990089 131.700012,82.133133 
	C130.598175,83.516739 129.793793,84.757294 128.995026,85.999298 
	C129.000610,86.000755 128.997482,85.990074 128.687408,86.126976 
	C127.246574,87.840111 126.115837,89.416344 124.992294,90.996811 
	C124.999496,91.001030 124.993210,90.987022 124.728409,91.107925 
	C123.981308,91.815147 123.498993,92.401459 122.877731,93.286331 
	C121.491859,95.053192 120.244942,96.521500 118.650818,98.026108 
	C112.561577,104.984039 105.982635,111.384300 101.270912,118.947762 
	C93.947403,130.703766 87.854691,143.229996 81.312210,155.468216 
	C72.585915,171.791412 63.662235,188.018036 55.372925,204.561508 
	C52.068230,211.156891 48.759449,217.457657 42.910797,222.113586 
	C42.910797,222.113586 42.701237,222.097610 42.599503,222.067963 
	C41.930164,219.969498 41.362553,217.900696 41.142776,215.407013 
	C41.997337,214.323257 42.504059,213.664383 43.010773,213.005508 
z"/>
<path fill="#F8C549" opacity="1.000000" stroke="none" 
	d="
M118.998032,97.989807 
	C120.244942,96.521500 121.491859,95.053192 123.197327,93.247894 
	C124.101669,92.269615 124.547440,91.628319 124.993210,90.987022 
	C124.993210,90.987022 124.999496,91.001030 125.348885,90.964539 
	C126.798012,89.282051 127.897751,87.636063 128.997482,85.990074 
	C128.997482,85.990074 129.000610,86.000755 129.353271,85.962502 
	C130.469788,84.612862 131.233627,83.301476 131.997482,81.990089 
	C131.997482,81.990089 132.000549,81.999290 131.994980,81.998245 
	C133.671982,83.209671 135.402466,84.361504 137.028381,85.645706 
	C142.425369,89.908424 148.456146,91.997269 155.389206,91.344284 
	C156.311966,91.257370 157.290161,91.759041 158.617065,91.992432 
	C158.021561,94.760345 157.051682,97.523956 156.051208,100.654404 
	C155.707245,102.113815 155.393890,103.206406 155.044769,104.896683 
	C155.010361,105.664253 155.011703,105.834129 155.013062,106.004005 
	C154.675507,107.105278 154.337936,108.206543 153.673767,109.795921 
	C151.691666,111.030312 149.997162,111.701447 148.387604,112.536324 
	C142.546799,115.565956 133.303772,112.316086 132.957306,106.588036 
	C132.725723,102.759071 130.668686,101.924637 127.843872,100.686577 
	C126.925400,99.204163 126.146217,98.015541 125.156036,96.505074 
	C123.041733,100.791161 121.017387,104.894875 118.624687,109.003204 
	C115.977699,110.721153 113.130554,112.020615 111.526009,114.224670 
	C106.521843,121.098602 102.011475,128.330856 97.235657,135.373993 
	C96.748161,136.092926 95.761749,136.473587 95.040512,136.649628 
	C99.083092,129.308701 102.908989,122.215569 107.156189,115.384392 
	C110.856567,109.432693 115.032333,103.776550 118.998032,97.989807 
z"/>
<path fill="#FDE77F" opacity="1.000000" stroke="none" 
	d="
M138.995316,71.996338 
	C138.129578,71.835167 137.268433,71.677353 136.092545,71.037674 
	C135.575089,70.283051 135.311676,70.095543 134.987579,69.993286 
	C140.391083,65.640053 145.794601,61.286816 151.592606,56.959785 
	C151.987091,56.985992 152.052368,57.039120 152.052368,57.039124 
	C148.118179,61.491184 144.183990,65.943245 139.890381,70.807602 
	C139.268982,71.419647 139.090530,71.677284 138.995621,71.992798 
	C138.995621,71.992798 138.999924,71.999702 138.995316,71.996338 
z"/>
<path fill="#FDE78B" opacity="1.000000" stroke="none" 
	d="
M133.645966,71.008682 
	C131.227570,73.640762 128.466751,76.317184 125.336784,78.991592 
	C127.746277,76.344055 130.524902,73.698547 133.645966,71.008682 
z"/>
<path fill="#FDE77F" opacity="1.000000" stroke="none" 
	d="
M154.374573,54.242821 
	C154.527649,53.790291 154.821838,53.511314 155.138580,53.260868 
	C155.158127,53.245422 155.355408,53.454788 155.470001,53.559555 
	C155.153595,53.847317 154.837173,54.135075 154.374573,54.242821 
z"/>
<path fill="#FDE77F" opacity="1.000000" stroke="none" 
	d="
M151.956055,56.957596 
	C152.088791,56.483345 152.252579,56.037491 152.416367,55.591637 
	C152.439911,55.984329 152.463455,56.377022 152.269684,56.904419 
	C152.052368,57.039120 151.987091,56.985992 151.956055,56.957596 
z"/>
<path fill="#FDE78B" opacity="1.000000" stroke="none" 
	d="
M134.769562,70.104263 
	C135.311676,70.095543 135.575089,70.283051 135.887482,70.775452 
	C135.546204,70.996780 135.095245,70.998482 134.305664,70.993790 
	C134.086517,70.672951 134.281342,70.415558 134.769562,70.104263 
z"/>
<path fill="#FBD83C" opacity="1.000000" stroke="none" 
	d="
M166.468048,46.449913 
	C166.523849,46.416744 166.412231,46.483086 166.468048,46.449913 
z"/>
<path fill="#FBDA74" opacity="1.000000" stroke="none" 
	d="
M139.215607,71.891960 
	C139.090530,71.677284 139.268982,71.419647 139.740234,71.107605 
	C139.885376,71.329796 139.714066,71.595062 139.215607,71.891960 
z"/>
<path fill="#F5B552" opacity="1.000000" stroke="none" 
	d="
M127.983162,100.980377 
	C130.668686,101.924637 132.725723,102.759071 132.957306,106.588036 
	C133.303772,112.316086 142.546799,115.565956 148.387604,112.536324 
	C149.997162,111.701447 151.691666,111.030312 153.666382,110.147209 
	C153.018433,115.406311 152.051285,120.802246 150.867371,126.689720 
	C150.758606,127.457550 150.866608,127.733841 150.974609,128.010132 
	C150.987061,128.178604 150.999512,128.347092 151.024017,129.097855 
	C151.025589,130.120499 151.015137,130.560867 150.638916,131.006042 
	C148.296417,132.854858 145.489990,134.340775 144.508743,136.614380 
	C142.180603,142.008896 140.730194,147.760635 135.804123,151.656998 
	C135.213745,152.123993 135.485794,153.604935 134.918808,154.190582 
	C131.772034,157.440887 132.649918,163.631348 126.697029,164.877930 
	C124.928925,163.830170 123.465118,162.918533 121.661682,161.999786 
	C120.884705,161.209061 119.976730,160.342636 120.097336,159.657181 
	C120.475250,157.509293 121.726318,155.433563 121.743362,153.322632 
	C121.769417,150.095657 120.640450,146.852249 120.722626,143.634216 
	C120.932594,135.411972 121.540756,127.199913 121.992447,118.654129 
	C121.988029,117.884682 121.980804,117.444885 122.127792,116.664146 
	C124.427956,111.300179 122.730141,104.848869 127.983162,100.980377 
z"/>
<path fill="#EF9A19" opacity="1.000000" stroke="none" 
	d="
M151.004669,131.001221 
	C151.015137,130.560867 151.025589,130.120499 151.047333,129.350189 
	C152.061722,126.846542 153.196091,124.721512 154.025909,122.483559 
	C154.674561,120.734245 154.945389,118.844833 155.361588,117.111412 
	C160.640335,121.735031 157.299988,127.743889 157.955994,133.585526 
	C156.117615,133.927338 154.304886,133.811493 152.224045,133.554214 
	C151.645447,132.940460 151.334976,132.468140 151.026001,131.747025 
	C151.027496,131.498245 151.004669,131.001221 151.004669,131.001221 
z"/>
<path fill="#F8C732" opacity="1.000000" stroke="none" 
	d="
M155.179047,105.913116 
	C155.011703,105.834129 155.010361,105.664253 155.014709,105.239456 
	C155.191132,105.155396 155.378647,105.313988 155.519028,105.506889 
	C155.548965,105.548004 155.407516,105.713844 155.179047,105.913116 
z"/>
<path fill="#F1A752" opacity="1.000000" stroke="none" 
	d="
M150.980865,127.757126 
	C150.866608,127.733841 150.758606,127.457550 150.813141,127.089668 
	C150.979492,127.166756 150.983307,127.335442 150.980865,127.757126 
z"/>
<path fill="#F1AC64" opacity="1.000000" stroke="none" 
	d="
M122.001328,162.006882 
	C123.465118,162.918533 124.928925,163.830170 126.697433,165.120544 
	C127.002151,165.499268 127.001526,165.984848 126.833374,166.077621 
	C126.777122,166.450180 126.889023,166.729965 127.001495,167.405243 
	C128.015976,176.220947 129.234390,184.623367 129.968307,193.067902 
	C130.420303,198.268707 129.554520,203.617111 130.294647,208.753082 
	C131.951904,220.253006 127.045853,228.708450 118.997147,236.017593 
	C118.557327,236.018768 118.117516,236.019958 116.961090,236.008011 
	C114.493370,235.666656 112.742264,235.338440 110.991150,235.010223 
	C110.991150,235.010223 111.000000,235.000000 110.957481,234.681580 
	C110.273804,233.910843 109.632645,233.458542 108.991486,233.006241 
	C108.991486,233.006241 108.980568,232.513199 108.953522,231.914429 
	C108.278435,229.875961 107.630394,228.436249 106.982361,226.996536 
	C106.981216,226.556931 106.980072,226.117340 106.976730,224.922943 
	C106.983711,216.265518 106.361336,208.299255 107.149788,200.475174 
	C108.338669,188.677536 111.356140,177.267609 118.324684,167.306885 
	C119.557228,165.545120 120.776123,163.773804 122.001328,162.006882 
z"/>
<path fill="#F1A752" opacity="1.000000" stroke="none" 
	d="
M119.212494,236.279144 
	C127.045853,228.708450 131.951904,220.253006 130.294647,208.753082 
	C129.554520,203.617111 130.420303,198.268707 129.968307,193.067902 
	C129.234390,184.623367 128.015976,176.220947 127.002686,167.148956 
	C127.002708,166.326401 127.002121,166.155624 127.001526,165.984848 
	C127.001526,165.984848 127.002151,165.499268 127.001740,165.256653 
	C132.649918,163.631348 131.772034,157.440887 134.918808,154.190582 
	C135.485794,153.604935 135.213745,152.123993 135.804123,151.656998 
	C140.730194,147.760635 142.180603,142.008896 144.508743,136.614380 
	C145.489990,134.340775 148.296417,132.854858 150.638916,131.006042 
	C151.004669,131.001221 151.027496,131.498245 150.733917,132.001999 
	C150.292557,134.335739 150.144745,136.165741 149.847534,138.343063 
	C149.777267,140.784561 149.856400,142.878708 149.935532,144.972870 
	C149.934418,145.421066 149.933289,145.869247 149.631561,146.688705 
	C149.198151,147.697800 149.065369,148.335648 148.932556,148.973480 
	C148.918121,150.041779 148.903687,151.110077 148.533447,152.651993 
	C148.097092,154.410492 148.016541,155.695374 147.935974,156.980255 
	C147.935974,156.980255 147.897949,157.475571 147.853302,157.719986 
	C142.518387,159.841248 142.799408,164.955811 142.185318,168.939529 
	C140.116287,182.361633 138.924927,195.918015 136.910172,209.349884 
	C135.500732,218.746353 131.444687,227.183395 124.960876,234.206940 
	C123.724579,235.546173 121.302719,235.790955 119.212494,236.279144 
z"/>
<path fill="#F1A752" opacity="1.000000" stroke="none" 
	d="
M121.661682,161.999786 
	C120.776123,163.773804 119.557228,165.545120 118.324684,167.306885 
	C111.356140,177.267609 108.338669,188.677536 107.149788,200.475174 
	C106.361336,208.299255 106.983711,216.265518 106.975227,224.593231 
	C106.034508,224.000214 104.352570,223.041351 104.265640,221.954865 
	C103.345062,210.449585 100.338913,199.094543 102.648476,187.351669 
	C104.537941,177.744644 105.508888,167.958710 106.981422,158.266449 
	C107.281097,156.293976 108.002060,154.385513 108.301727,151.858978 
	C108.718246,149.181244 109.361862,147.092072 110.279266,144.781616 
	C113.185997,137.806595 115.726891,131.014587 118.509712,124.323196 
	C119.311798,122.394547 120.810387,120.755562 121.989639,118.983772 
	C121.540756,127.199913 120.932594,135.411972 120.722626,143.634216 
	C120.640450,146.852249 121.769417,150.095657 121.743362,153.322632 
	C121.726318,155.433563 120.475250,157.509293 120.097336,159.657181 
	C119.976730,160.342636 120.884705,161.209061 121.661682,161.999786 
z"/>
<path fill="#EF9738" opacity="1.000000" stroke="none" 
	d="
M110.005470,145.002899 
	C109.361862,147.092072 108.718246,149.181244 108.035370,151.634857 
	C106.329132,156.346405 104.366196,160.607758 103.075325,165.063797 
	C101.680161,169.879868 100.809158,174.858627 99.894974,179.800735 
	C98.378044,188.001282 97.009399,196.229263 95.286835,204.724792 
	C94.715027,203.620865 94.032227,202.176636 94.231392,200.866470 
	C94.782143,197.243484 93.645195,193.969009 90.236519,193.568497 
	C88.331200,193.344620 85.719315,196.016037 83.998009,197.904404 
	C77.800209,204.703659 75.905930,213.717575 72.103630,221.759750 
	C71.490112,223.057404 69.891548,223.889328 68.435944,224.621719 
	C68.758141,223.177689 69.609642,222.117279 69.992996,220.908401 
	C73.045143,211.283737 76.008453,201.630890 79.276138,191.782715 
	C83.394623,185.179184 87.344978,178.841782 91.041069,172.359390 
	C93.740242,167.625458 96.432449,162.835831 98.503471,157.813583 
	C99.893791,154.442032 100.192673,150.620392 101.309372,146.860657 
	C104.039009,144.209137 106.439156,141.697098 109.212112,138.794861 
	C109.463097,140.758865 109.734283,142.880875 110.005470,145.002899 
z"/>
<path fill="#F1A752" opacity="1.000000" stroke="none" 
	d="
M111.005196,235.402039 
	C112.742264,235.338440 114.493370,235.666656 116.631226,236.009552 
	C114.901649,238.987595 112.884972,239.356094 111.005196,235.402039 
z"/>
<path fill="#F1A752" opacity="1.000000" stroke="none" 
	d="
M106.745201,227.175919 
	C107.630394,228.436249 108.278435,229.875961 108.951416,231.667877 
	C104.774269,232.253281 106.851555,229.163818 106.745201,227.175919 
z"/>
<path fill="#E7872F" opacity="1.000000" stroke="none" 
	d="
M147.610413,165.019775 
	C147.793900,165.833969 147.663773,166.711044 147.264145,167.791107 
	C147.095367,167.023605 147.196091,166.053116 147.610413,165.019775 
z"/>
<path fill="#F1A752" opacity="1.000000" stroke="none" 
	d="
M109.034149,233.326172 
	C109.632645,233.458542 110.273804,233.910843 110.952591,234.685745 
	C110.352417,234.554276 109.714607,234.100189 109.034149,233.326172 
z"/>
<path fill="#E7872F" opacity="1.000000" stroke="none" 
	d="
M145.638214,179.014679 
	C145.939575,179.427719 145.954422,179.894577 145.937637,180.711365 
	C145.415512,180.720978 144.925018,180.380676 144.434509,180.040375 
	C144.740234,179.716415 145.045959,179.392456 145.638214,179.014679 
z"/>
<path fill="#D67606" opacity="1.000000" stroke="none" 
	d="
M116.583603,255.009674 
	C113.186653,254.775070 109.268814,255.032562 105.616737,254.167740 
	C96.670273,252.049210 87.223083,250.641235 79.186935,246.563583 
	C73.594002,243.725647 68.537071,246.299408 63.392941,243.998825 
	C68.152496,241.619919 73.056770,239.805038 78.328377,238.029816 
	C82.136429,238.375000 85.577148,238.680511 89.017868,238.986023 
	C89.017868,238.986008 88.999695,239.000000 89.008362,239.227554 
	C89.353836,239.621353 89.690628,239.787598 90.027420,239.953842 
	C97.611801,244.762680 105.173233,249.608643 112.810867,254.331360 
	C113.722542,254.895081 115.049278,254.787567 116.583603,255.009674 
z"/>
<path fill="#EC974A" opacity="1.000000" stroke="none" 
	d="
M78.999023,191.986694 
	C76.008453,201.630890 73.045143,211.283737 69.992996,220.908401 
	C69.609642,222.117279 68.758141,223.177689 68.073227,224.666931 
	C67.757500,225.513870 67.492111,226.000793 66.816353,226.873352 
	C65.603546,228.173889 64.801109,229.088776 63.998684,230.003662 
	C59.891270,231.681549 55.783848,233.359421 51.273460,235.078583 
	C49.705185,233.931656 48.539871,232.743454 47.685013,231.267181 
	C57.636482,230.428665 63.183174,224.360916 66.956657,216.375885 
	C70.124817,209.671768 72.648201,202.665421 75.663376,195.884613 
	C76.329300,194.387009 77.864235,193.275818 78.999023,191.986694 
z"/>
<path fill="#DD7F2B" opacity="1.000000" stroke="none" 
	d="
M77.961044,237.990143 
	C73.056770,239.805038 68.152496,241.619919 63.119164,243.703918 
	C59.758827,242.188232 56.527554,240.403458 53.139061,238.314758 
	C61.078800,237.671814 69.175758,237.332779 77.628357,237.244324 
	C77.983986,237.494888 77.961044,237.990143 77.961044,237.990143 
z"/>
<path fill="#E97706" opacity="1.000000" stroke="none" 
	d="
M78.328377,238.029816 
	C77.961044,237.990143 77.983986,237.494888 77.989471,237.247055 
	C79.911774,234.454239 81.828598,231.909256 83.662460,229.474411 
	C85.164764,232.101593 86.952415,235.227753 88.878967,238.669968 
	C85.577148,238.680511 82.136429,238.375000 78.328377,238.029816 
z"/>
<path fill="#EF9738" opacity="1.000000" stroke="none" 
	d="
M64.370544,229.995163 
	C64.801109,229.088776 65.603546,228.173889 66.708443,227.129578 
	C66.254745,227.995636 65.498573,228.991150 64.370544,229.995163 
z"/>
<path fill="#E97706" opacity="1.000000" stroke="none" 
	d="
M89.913651,239.740021 
	C89.690628,239.787598 89.353836,239.621353 89.015472,239.218353 
	C89.335335,239.077347 89.597321,239.258881 89.913651,239.740021 
z"/>
<path fill="#EF9A19" opacity="1.000000" stroke="none" 
	d="
M166.402130,148.725601 
	C166.560410,148.851501 166.583145,149.069183 166.605865,149.286880 
	C166.492767,149.130386 166.379669,148.973892 166.402130,148.725601 
z"/>
<path fill="#EF9A19" opacity="1.000000" stroke="none" 
	d="
M165.534698,157.549530 
	C165.479706,157.582016 165.589691,157.517059 165.534698,157.549530 
z"/>
<path fill="#F4B32F" opacity="1.000000" stroke="none" 
	d="
M158.550537,144.466248 
	C158.583862,144.522095 158.517227,144.410385 158.550537,144.466248 
z"/>
<path fill="#EC974A" opacity="1.000000" stroke="none" 
	d="
M150.241119,144.725159 
	C149.856400,142.878708 149.777267,140.784561 150.089401,138.349060 
	C150.480667,138.007706 150.964188,138.023499 150.964172,138.023499 
	C150.825012,140.174805 150.685852,142.326126 150.241119,144.725159 
z"/>
<path fill="#F4B32F" opacity="1.000000" stroke="none" 
	d="
M151.007355,137.676132 
	C150.964188,138.023499 150.480667,138.007706 150.238800,138.001709 
	C150.144745,136.165741 150.292557,134.335739 150.732422,132.250778 
	C151.334976,132.468140 151.645447,132.940460 151.982056,133.709290 
	C151.688980,135.113434 151.369751,136.221100 151.007355,137.676132 
z"/>
<path fill="#EC974A" opacity="1.000000" stroke="none" 
	d="
M148.225647,156.763824 
	C148.016541,155.695374 148.097092,154.410492 148.495117,153.050964 
	C148.713486,154.166656 148.614395,155.357025 148.225647,156.763824 
z"/>
<path fill="#EC974A" opacity="1.000000" stroke="none" 
	d="
M149.197937,148.827972 
	C149.065369,148.335648 149.198151,147.697800 149.608032,147.024094 
	C149.744507,147.552963 149.603897,148.117706 149.197937,148.827972 
z"/>
<path fill="#F2AC52" opacity="1.000000" stroke="none" 
	d="
M79.276138,191.782715 
	C77.864235,193.275818 76.329300,194.387009 75.663376,195.884613 
	C72.648201,202.665421 70.124817,209.671768 66.956657,216.375885 
	C63.183174,224.360916 57.636482,230.428665 47.606083,230.966644 
	C46.821053,230.191818 46.425411,229.429459 46.300846,228.193161 
	C51.861034,222.995117 57.432617,218.529861 59.994556,211.516403 
	C61.623383,207.057434 63.274517,202.592575 65.213074,198.263550 
	C69.927040,187.736649 74.735199,177.250015 79.659874,166.820068 
	C82.965851,159.818375 86.535889,152.941360 90.255035,145.805481 
	C90.684929,144.735703 90.847549,143.869003 91.004745,143.001450 
	C90.999313,143.000610 91.006737,143.011032 91.362061,142.972198 
	C92.815170,140.956741 93.912956,138.980118 95.005760,137.001602 
	C95.000786,136.999710 95.006859,137.011215 95.006859,137.011215 
	C95.761749,136.473587 96.748161,136.092926 97.235657,135.373993 
	C102.011475,128.330856 106.521843,121.098602 111.526009,114.224670 
	C113.130554,112.020615 115.977699,110.721153 118.493416,109.315353 
	C118.162262,111.085968 117.594025,112.549057 116.873901,114.335106 
	C116.129189,116.016197 115.622787,117.420265 114.929070,118.724724 
	C111.320892,125.509491 107.580101,132.225296 104.070107,139.059921 
	C102.779549,141.572891 101.995163,144.345795 100.979889,147.000137 
	C100.192673,150.620392 99.893791,154.442032 98.503471,157.813583 
	C96.432449,162.835831 93.740242,167.625458 91.041069,172.359390 
	C87.344978,178.841782 83.394623,185.179184 79.276138,191.782715 
z"/>
<path fill="#F7C566" opacity="1.000000" stroke="none" 
	d="
M89.987778,146.008560 
	C86.535889,152.941360 82.965851,159.818375 79.659874,166.820068 
	C74.735199,177.250015 69.927040,187.736649 65.213074,198.263550 
	C63.274517,202.592575 61.623383,207.057434 59.994556,211.516403 
	C57.432617,218.529861 51.861034,222.995117 46.270836,227.869934 
	C44.976440,226.280472 43.983139,224.540329 42.950317,222.456879 
	C48.759449,217.457657 52.068230,211.156891 55.372925,204.561508 
	C63.662235,188.018036 72.585915,171.791412 81.312210,155.468216 
	C87.854691,143.229996 93.947403,130.703766 101.270912,118.947762 
	C105.982635,111.384300 112.561577,104.984039 118.650826,98.026115 
	C115.032333,103.776550 110.856567,109.432693 107.156189,115.384392 
	C102.908989,122.215569 99.083092,129.308701 95.040512,136.649628 
	C95.006859,137.011215 95.000786,136.999710 94.703072,137.148773 
	C93.272484,139.202225 92.139610,141.106628 91.006729,143.011032 
	C91.006737,143.011032 90.999313,143.000610 90.737747,143.203796 
	C90.313385,144.274185 90.150574,145.141373 89.987778,146.008560 
z"/>
<path fill="#CD580B" opacity="1.000000" stroke="none" 
	d="
M132.827271,255.764587 
	C132.532776,256.313904 132.065598,256.636322 131.300140,256.980591 
	C131.552750,256.514191 132.103668,256.025940 132.827271,255.764587 
z"/>
<path fill="#FEF2AB" opacity="1.000000" stroke="none" 
	d="
M91.593834,111.912155 
	C88.920967,117.365616 85.930664,122.825310 82.870361,128.245483 
	C75.886818,140.614136 68.862450,152.959763 61.870941,165.323929 
	C60.568958,167.626404 59.342976,169.971848 57.738583,172.797363 
	C53.189579,178.018219 49.000244,182.754211 44.716381,187.403122 
	C44.551174,187.582413 43.476944,186.924072 42.826290,186.656036 
	C42.949486,185.729706 43.072681,184.803391 43.444740,183.263062 
	C45.316822,178.470078 46.940044,174.291092 48.563271,170.112122 
	C57.132973,153.383011 68.065720,138.258148 80.085449,123.486191 
	C80.173988,123.161240 80.133942,123.083275 80.358200,123.002968 
	C80.829582,122.643593 81.076714,122.364525 81.323845,122.085449 
	C81.600914,122.036293 81.812912,121.891716 82.226410,121.292480 
	C82.672508,120.624741 82.852020,120.316238 83.031540,120.007736 
	C83.031540,120.007736 82.997238,119.997643 83.233826,119.912674 
	C83.655411,119.554192 83.840393,119.280670 84.025375,119.007149 
	C86.431786,116.638245 88.838196,114.269341 91.593834,111.912155 
z"/>
<path fill="#FEF090" opacity="1.000000" stroke="none" 
	d="
M42.568768,186.954010 
	C43.476944,186.924072 44.551174,187.582413 44.716381,187.403122 
	C49.000244,182.754211 53.189579,178.018219 57.700188,173.151306 
	C55.233192,180.217087 52.625500,187.497772 49.635105,194.617737 
	C47.414677,199.904480 44.658875,204.964737 42.252831,210.177261 
	C41.965576,210.799561 42.378326,211.744965 42.738693,212.773056 
	C42.504059,213.664383 41.997337,214.323257 41.147308,215.036911 
	C39.018234,205.687927 39.420643,196.402603 42.568768,186.954010 
z"/>
<path fill="#EF993A" opacity="1.000000" stroke="none" 
	d="
M48.199795,170.174149 
	C46.940044,174.291092 45.316822,178.470078 43.463150,182.912491 
	C42.115059,183.630768 40.997414,184.085602 38.986191,184.904068 
	C39.370571,181.917267 39.696651,179.383499 40.041267,176.445358 
	C40.538681,175.151840 41.017555,174.262695 41.751984,173.194992 
	C43.950462,172.089676 45.893391,171.162933 48.199795,170.174149 
z"/>
<path fill="#F4B32F" opacity="1.000000" stroke="none" 
	d="
M57.695770,142.178589 
	C59.752705,144.774719 59.242096,147.740250 57.638199,150.135910 
	C55.398148,153.481766 52.530785,156.407608 49.532692,159.990143 
	C49.258793,158.764374 49.129852,158.187332 48.993950,157.289795 
	C51.799797,152.104279 54.612614,147.239273 57.695770,142.178589 
z"/>
<path fill="#FEF2AB" opacity="1.000000" stroke="none" 
	d="
M92.708237,109.946930 
	C92.790741,110.581078 92.662514,111.251968 92.226295,111.932991 
	C91.928482,111.513809 91.938652,111.084488 92.009804,110.334579 
	C92.070786,110.014000 92.497513,109.983658 92.708237,109.946930 
z"/>
<path fill="#F2AA31" opacity="1.000000" stroke="none" 
	d="
M83.799416,119.114967 
	C83.840393,119.280670 83.655411,119.554192 83.239616,119.929588 
	C83.197021,119.761909 83.385239,119.492348 83.799416,119.114967 
z"/>
<path fill="#F2AA31" opacity="1.000000" stroke="none" 
	d="
M82.787453,120.143951 
	C82.852020,120.316238 82.672508,120.624741 82.279602,121.102539 
	C82.225266,120.941277 82.384315,120.610725 82.787453,120.143951 
z"/>
<path fill="#F2AA31" opacity="1.000000" stroke="none" 
	d="
M81.040817,122.151894 
	C81.076714,122.364525 80.829582,122.643593 80.314789,123.008926 
	C80.284004,122.802902 80.520897,122.510620 81.040817,122.151894 
z"/>
<path fill="#FCD846" opacity="1.000000" stroke="none" 
	d="
M128.687408,86.126976 
	C127.897751,87.636063 126.798012,89.282051 125.341690,90.960312 
	C126.115837,89.416344 127.246574,87.840111 128.687408,86.126976 
z"/>
<path fill="#FCD846" opacity="1.000000" stroke="none" 
	d="
M131.700012,82.133133 
	C131.233627,83.301476 130.469788,84.612862 129.347687,85.961044 
	C129.793793,84.757294 130.598175,83.516739 131.700012,82.133133 
z"/>
<path fill="#FCD846" opacity="1.000000" stroke="none" 
	d="
M124.728409,91.107925 
	C124.547440,91.628319 124.101669,92.269615 123.336288,92.949341 
	C123.498993,92.401459 123.981308,91.815147 124.728409,91.107925 
z"/>
<path fill="#F4B32F" opacity="1.000000" stroke="none" 
	d="
M117.025787,114.012138 
	C117.594025,112.549057 118.162262,111.085968 118.861778,109.310738 
	C121.017387,104.894875 123.041733,100.791161 125.156036,96.505074 
	C126.146217,98.015541 126.925400,99.204163 127.843872,100.686577 
	C122.730141,104.848869 124.427956,111.300179 121.854980,116.640221 
	C119.960564,115.975533 118.493179,114.993835 117.025787,114.012138 
z"/>
<path fill="#F2A92C" opacity="1.000000" stroke="none" 
	d="
M116.873901,114.335106 
	C118.493179,114.993835 119.960564,115.975533 121.700760,116.981155 
	C121.980804,117.444885 121.988029,117.884682 121.992455,118.654129 
	C120.810387,120.755562 119.311798,122.394547 118.509712,124.323196 
	C115.726891,131.014587 113.185997,137.806595 110.279266,144.781616 
	C109.734283,142.880875 109.463097,140.758865 109.212112,138.794861 
	C106.439156,141.697098 104.039009,144.209137 101.309372,146.860657 
	C101.995163,144.345795 102.779549,141.572891 104.070107,139.059921 
	C107.580101,132.225296 111.320892,125.509491 114.929070,118.724724 
	C115.622787,117.420265 116.129189,116.016197 116.873901,114.335106 
z"/>
<path fill="#F5B552" opacity="1.000000" stroke="none" 
	d="
M126.833374,166.077621 
	C127.002121,166.155624 127.002708,166.326401 127.002106,166.753464 
	C126.889023,166.729965 126.777122,166.450180 126.833374,166.077621 
z"/>
<path fill="#F8C549" opacity="1.000000" stroke="none" 
	d="
M91.362061,142.972198 
	C92.139610,141.106628 93.272484,139.202225 94.708046,137.150665 
	C93.912956,138.980118 92.815170,140.956741 91.362061,142.972198 
z"/>
<path fill="#F8C549" opacity="1.000000" stroke="none" 
	d="
M90.255035,145.805481 
	C90.150574,145.141373 90.313385,144.274185 90.743179,143.204651 
	C90.847549,143.869003 90.684929,144.735703 90.255035,145.805481 
z"/>
</svg>