<?xml version="1.0" standalone="no"?>
<!DOCTYPE svg PUBLIC "-//W3C//DTD SVG 20010904//EN"
 "http://www.w3.org/TR/2001/REC-SVG-20010904/DTD/svg10.dtd">
<svg version="1.0" xmlns="http://www.w3.org/2000/svg"
 width="840.000000pt" height="441.000000pt" viewBox="0 0 840.000000 441.000000"
 preserveAspectRatio="xMidYMid meet">
<metadata>
Created by potrace 1.16, written by Peter Selinger 2001-2019
</metadata>
<g transform="translate(0.000000,441.000000) scale(0.100000,-0.100000)"
fill="#000000" stroke="none">
<path d="M4045 3989 c-246 -25 -494 -117 -720 -266 -120 -80 -325 -280 -402
-394 -119 -174 -203 -367 -245 -562 -19 -88 -22 -133 -21 -317 0 -118 4 -235
9 -259 9 -44 13 -47 239 -213 127 -93 240 -176 252 -186 19 -15 24 -43 53
-277 17 -143 33 -270 36 -282 l4 -23 370 0 370 0 57 -30 c109 -57 227 -57 330
1 l53 29 375 0 c206 0 375 2 375 5 0 22 72 560 75 566 3 4 110 85 239 179 188
138 235 176 239 199 18 88 29 260 23 364 -46 884 -832 1556 -1711 1466z m73
-267 c14 -9 23 -154 47 -742 22 -554 37 -843 45 -864 8 -24 14 96 40 769 19
522 26 657 36 772 5 62 6 62 40 69 76 14 261 -27 319 -71 21 -16 28 29 -136
-815 -15 -80 -51 -264 -79 -409 -28 -145 -49 -265 -47 -267 2 -2 24 67 50 153
223 768 230 793 333 1136 21 70 43 127 49 127 24 0 151 -70 193 -105 23 -20
56 -57 73 -82 l31 -45 -80 -171 c-44 -95 -150 -325 -235 -512 -85 -187 -178
-389 -206 -449 -51 -108 -62 -147 -23 -84 11 18 115 197 232 398 182 313 375
638 409 690 8 12 16 9 46 -20 77 -74 155 -228 155 -305 0 -16 -105 -152 -322
-417 -177 -216 -341 -417 -366 -445 -24 -29 -41 -53 -37 -53 4 0 178 169 386
376 209 206 384 372 389 369 24 -15 44 -122 44 -235 0 -189 17 -166 -282 -387
l-258 -192 -27 -208 c-15 -114 -27 -211 -27 -215 0 -5 -129 -8 -286 -8 l-285
0 -25 -30 c-53 -62 -160 -62 -204 0 l-21 30 -286 2 -287 3 -7 30 c-4 17 -17
113 -30 214 l-23 184 -260 194 c-143 106 -265 203 -270 216 -6 12 -10 87 -10
167 -1 129 1 150 21 193 12 26 26 47 30 47 4 0 116 -108 248 -241 132 -132
307 -304 390 -382 172 -164 205 -208 -284 388 -235 287 -311 386 -311 406 0
48 39 153 80 216 39 58 91 113 110 113 8 0 189 -301 390 -650 168 -291 292
-500 296 -500 2 0 -13 35 -32 78 -20 42 -139 304 -266 582 -127 278 -241 526
-254 552 -13 26 -24 55 -24 64 0 29 140 158 209 192 35 18 72 32 81 32 13 0
24 -22 43 -92 65 -226 392 -1326 394 -1324 3 2 -271 1411 -284 1464 -4 19 2
26 53 49 33 15 82 32 109 39 57 14 184 18 203 6z"/>
<path d="M2704 971 c-53 -24 -74 -68 -74 -153 0 -72 14 -99 63 -125 26 -14 70
-18 231 -23 195 -5 198 -6 218 -30 15 -19 19 -34 15 -64 -3 -21 -10 -44 -17
-50 -6 -6 -51 -13 -101 -15 -103 -4 -133 9 -144 59 l-7 30 -129 0 -129 0 0
-45 c0 -68 21 -111 62 -124 124 -41 548 -41 651 1 43 17 67 74 67 158 0 83
-17 123 -62 146 -35 18 -176 33 -321 34 -123 0 -137 7 -137 64 0 24 6 48 13
54 18 14 134 23 192 14 47 -7 50 -9 59 -45 l10 -37 119 0 120 0 -5 50 c-3 29
-13 59 -24 71 -40 45 -67 49 -356 49 -244 0 -277 -2 -314 -19z"/>
<path d="M3550 695 l0 -295 115 0 115 0 0 135 c0 165 6 175 98 175 98 0 102
-6 102 -171 l0 -139 115 0 115 0 0 173 c0 190 -3 203 -62 233 -56 29 -237 28
-345 -2 -23 -6 -23 -5 -23 90 l0 96 -115 0 -115 0 0 -295z"/>
<path d="M5150 695 l0 -295 115 0 115 0 0 295 0 295 -115 0 -115 0 0 -295z"/>
<path d="M5540 695 l0 -295 115 0 115 0 0 295 0 295 -115 0 -115 0 0 -295z"/>
<path d="M4490 824 c-120 -22 -143 -57 -138 -207 4 -119 17 -154 69 -180 54
-26 227 -39 369 -28 159 13 198 33 218 114 l10 37 -114 0 c-112 0 -115 -1
-124 -24 -19 -50 -146 -61 -182 -16 -10 12 -18 34 -18 48 l0 25 221 -7 222 -7
-6 75 c-11 153 -38 168 -312 172 -104 1 -201 0 -215 -2z"/>
</g>
</svg>
