 <svg  version="1.0" xmlns="http://www.w3.org/2000/svg"  width="300.000000pt" height="89.000000pt" viewBox="0 0 300.000000 89.000000"  preserveAspectRatio="xMidYMid meet">  <g transform="translate(0.000000,89.000000) scale(0.100000,-0.100000)" fill="#1b39b1" stroke="none"> <path d="M800 829 c-174 -15 -404 -75 -555 -144 -81 -36 -228 -132 -221 -143 2 -4 38 -23 80 -42 87 -40 83 -30 61 -185 -17 -118 -18 -132 -6 -119 13 14 132 326 127 332 -3 2 -46 7 -96 10 -50 2 -93 8 -95 12 -7 11 184 77 275 95 78 16 260 32 260 23 0 -3 -74 -142 -165 -308 -91 -167 -163 -305 -162 -307 2 -2 48 45 103 104 54 60 137 149 184 198 186 196 435 467 438 476 4 11 -94 10 -228 -2z m160 -29 c0 -5 -23 -36 -52 -67 -62 -69 -52 -58 -158 -170 -47 -49 -137 -144 -200 -212 -63 -67 -116 -118 -118 -113 -1 5 16 40 38 78 22 38 40 74 40 81 0 6 3 13 8 15 4 2 17 23 30 48 13 25 42 80 64 122 54 103 49 111 -76 107 -50 -1 -118 -9 -151 -16 -33 -8 -70 -12 -82 -10 -12 2 -24 -2 -27 -9 -3 -8 -17 -13 -30 -12 -31 3 -25 8 39 35 122 53 346 111 470 123 121 11 205 11 205 0z m-800 -290 c0 -5 -7 -7 -15 -4 -8 4 -15 8 -15 10 0 2 7 4 15 4 8 0 15 -4 15 -10z m90 -12 c0 -27 -25 -78 -38 -78 -8 0 -12 6 -9 14 3 8 -3 26 -14 39 -26 34 -25 37 21 37 24 0 40 -5 40 -12z m-37 -108 c-3 -11 -7 -20 -9 -20 -2 0 -4 9 -4 20 0 11 4 20 9 20 5 0 7 -9 4 -20z"/> <path d="M1180 683 c-7 -16 -50 -111 -96 -212 -97 -211 -103 -244 -53 -285 43 -36 67 -41 204 -40 148 1 214 23 287 93 40 38 62 77 132 229 l84 182 -122 0 -122 0 -74 -165 c-41 -91 -83 -174 -95 -185 -23 -22 -60 -26 -70 -9 -6 9 85 229 146 351 16 32 29 60 29 63 0 3 -53 5 -118 5 l-119 0 -13 -27z m190 -48 c-35 -80 -57 -129 -83 -185 -64 -140 -69 -163 -38 -180 33 -17 66 -11 94 17 21 23 124 232 150 306 4 10 11 16 16 13 5 -4 11 -1 13 4 4 12 143 20 160 9 8 -5 6 -18 -7 -46 -10 -21 -34 -74 -55 -118 -21 -44 -45 -97 -55 -117 -24 -53 -76 -104 -132 -132 -85 -42 -217 -55 -318 -32 -11 2 -24 5 -30 5 -21 2 -65 49 -65 71 0 31 80 211 91 204 5 -3 6 1 3 9 -3 8 18 60 46 115 l51 102 89 0 89 0 -19 -45z"/> <path d="M2623 645 c-140 -31 -205 -93 -274 -259 -47 -111 -49 -143 -11 -178 42 -41 78 -50 192 -50 122 1 212 24 278 72 49 35 118 147 152 248 31 90 20 124 -49 155 -59 26 -201 32 -288 12z m274 -35 c57 -25 63 -54 34 -140 -13 -36 -41 -94 -63 -130 -68 -110 -145 -150 -305 -158 -117 -5 -193 10 -201 40 -2 10 -9 15 -15 11 -23 -14 2 96 41 180 53 113 103 165 193 197 77 27 256 28 316 0z"/> <path d="M2649 533 c-20 -5 -111 -185 -111 -220 0 -30 16 -43 57 -43 37 1 65 24 88 73 9 21 22 35 27 32 5 -3 7 0 4 9 -3 8 4 32 15 55 24 46 26 72 9 89 -12 12 -56 14 -89 5z m76 -23 c10 -15 -80 -197 -103 -209 -34 -18 -62 -14 -62 9 0 27 85 197 102 203 22 9 57 7 63 -3z"/> <path d="M1801 628 c-5 -13 -52 -119 -105 -237 -53 -117 -96 -215 -96 -217 0 -2 51 -4 113 -4 l114 0 48 107 c27 60 51 111 55 115 3 5 17 -44 30 -107 l24 -116 119 3 119 3 63 140 c34 77 83 184 108 238 l46 98 -120 -3 -120 -3 -51 -113 c-28 -62 -54 -109 -58 -105 -3 4 -14 49 -24 98 -9 50 -20 98 -22 108 -5 15 -19 17 -120 17 -109 0 -115 -1 -123 -22z m219 -15 c4 -4 15 -46 24 -93 11 -53 24 -92 36 -105 20 -19 20 -19 35 0 8 11 23 38 32 59 10 22 30 63 44 90 l26 51 86 3 86 3 -13 -38 c-7 -21 -30 -74 -51 -118 -54 -117 -71 -153 -99 -217 l-24 -57 -95 0 c-107 0 -98 -7 -122 97 -35 152 -55 159 -113 40 -22 -46 -43 -93 -46 -105 -8 -27 -43 -35 -129 -31 l-63 2 12 26 c6 14 19 41 27 60 8 19 32 71 52 115 20 44 44 98 53 120 34 85 46 100 88 105 54 7 145 3 154 -7z"/> </g> </svg> 