<svg version="1.1" id="Layer_1" xmlns="http://www.w3.org/2000/svg" xmlns:xlink="http://www.w3.org/1999/xlink" x="0px" y="0px"
	 width="100%" viewBox="0 0 1280 378" enable-background="new 0 0 1280 378" xml:space="preserve">
<path fill="#000000" opacity="1.000000" stroke="none" 
	d="
M822.000000,379.000000 
	C548.000061,379.000000 274.500061,379.000000 1.000073,379.000000 
	C1.000049,253.000046 1.000049,127.000099 1.000024,1.000107 
	C427.666595,1.000072 854.333191,1.000072 1280.999756,1.000036 
	C1280.999878,126.999886 1280.999878,252.999771 1281.000000,378.999817 
	C1128.166626,379.000000 975.333313,379.000000 822.000000,379.000000 
M917.500000,308.000000 
	C926.664429,307.997772 935.829529,307.930389 944.992798,308.032135 
	C947.829712,308.063629 949.443726,307.311249 950.485107,304.333374 
	C952.063538,299.819519 954.386169,295.566162 956.388062,291.200073 
	C965.706238,270.878082 975.063782,250.573990 984.331055,230.228806 
	C1000.808777,194.053970 1017.245728,157.860489 1033.663330,121.658310 
	C1036.351196,115.731293 1038.852783,109.719727 1041.764038,103.000443 
	C1038.976440,103.000443 1037.328003,103.000435 1035.679443,103.000443 
	C1005.520447,103.000519 975.360962,103.088707 945.203125,102.900078 
	C940.967712,102.873589 938.698181,104.050240 936.898926,107.998650 
	C924.596985,134.995178 912.064148,161.886642 899.563538,188.792358 
	C898.074158,191.998047 896.329651,195.085220 894.440125,198.736084 
	C893.647522,197.539841 893.248657,197.185623 893.157227,196.764679 
	C886.779663,167.385681 880.363525,138.014694 874.144897,108.601944 
	C873.290466,104.560806 871.878052,102.857391 867.369141,102.889847 
	C837.378357,103.105789 807.384888,103.071564 777.393433,102.912689 
	C773.687378,102.893059 771.684265,104.021080 770.209045,107.388657 
	C764.093994,121.347923 757.746033,135.204956 751.526672,149.118805 
	C739.227478,176.634354 727.002808,204.183334 714.659546,231.679092 
	C705.021790,253.148087 695.232483,274.549011 685.557983,296.001556 
	C683.900574,299.676636 682.481201,303.459076 680.866028,307.401581 
	C682.259094,307.682800 682.903381,307.926056 683.547852,307.926697 
	C715.206055,307.958832 746.864380,307.934143 778.522278,308.041626 
	C781.549866,308.051880 782.418518,306.276367 783.404541,304.081726 
	C789.443420,290.640411 795.557007,277.232666 801.603882,263.794891 
	C807.242188,251.265305 812.788452,238.694138 818.460327,226.179855 
	C820.356201,221.997040 822.514648,217.933258 824.553101,213.815079 
	C832.751465,243.691467 839.937683,273.215485 846.887390,302.795044 
	C847.817627,306.754059 849.379578,308.133636 853.517029,308.093048 
	C874.509644,307.887054 895.505371,307.999268 917.500000,308.000000 
M538.111328,241.719788 
	C562.384827,187.749329 586.658386,133.778885 611.294739,79.001732 
	C608.216553,79.001732 606.079041,79.001747 603.941528,79.001740 
	C575.951721,79.001625 547.956604,79.302704 519.975708,78.803940 
	C512.333740,78.667717 508.537628,80.739304 505.232452,87.954521 
	C493.492828,113.582436 480.479462,138.624023 468.544525,164.166168 
	C457.048615,188.768661 446.606110,213.863831 435.080719,238.451889 
	C428.973694,251.480515 424.836639,264.598572 425.943481,279.142548 
	C426.415405,285.343597 428.307129,290.681213 432.668335,295.204987 
	C442.652771,305.561462 454.874054,311.841949 468.759949,314.910400 
	C475.840546,316.475006 483.022461,317.827118 490.231049,318.511200 
	C502.261078,319.652954 514.341614,320.593262 526.415833,320.819397 
	C534.147583,320.964233 541.905212,319.661102 549.653015,319.029419 
	C570.193909,317.354706 590.276184,313.535645 609.522156,305.976349 
	C627.275757,299.003357 643.574219,289.814270 656.875427,275.725525 
	C668.795166,263.100006 676.735168,248.168091 683.842590,232.563278 
	C699.634827,197.890686 715.703186,163.343964 731.635132,128.734909 
	C735.420288,120.512459 739.111572,112.246834 743.049316,103.552383 
	C741.317871,103.313698 740.218445,103.030518 739.118835,103.029686 
	C706.464050,103.005135 673.809204,103.042664 641.154724,102.951187 
	C638.122620,102.942703 637.007507,104.206535 635.842957,106.863167 
	C626.071411,129.154617 616.082092,151.350677 606.150330,173.571854 
	C600.337463,186.577530 594.740417,199.686371 588.618591,212.545227 
	C583.426147,223.451920 577.923523,234.237961 571.981689,244.751633 
	C567.815308,252.123795 561.916077,257.714691 552.875244,259.256256 
	C546.833435,260.286469 540.829773,259.119720 537.455933,254.981720 
	C535.466187,252.541367 537.580750,246.754684 538.111328,241.719788 
M995.492188,290.970520 
	C1002.464478,295.631409 1008.980774,301.278778 1016.500732,304.754974 
	C1034.006714,312.847290 1053.182373,313.047577 1071.974365,313.788940 
	C1083.844727,314.257233 1095.790039,312.546722 1107.711670,312.055023 
	C1129.924072,311.138824 1151.340088,306.561340 1171.771362,297.869537 
	C1192.181763,289.186615 1210.467041,277.346008 1223.495605,258.926361 
	C1229.114014,250.983154 1233.863892,242.391815 1238.614990,233.875397 
	C1252.950073,208.179535 1265.082764,181.528107 1271.524902,152.660370 
	C1274.103149,141.106689 1268.241943,123.717224 1257.037109,116.268776 
	C1240.707642,105.413811 1222.401611,101.293381 1203.476929,100.220215 
	C1185.536499,99.202827 1167.492310,99.923409 1149.495117,100.052071 
	C1144.703979,100.086327 1139.865967,100.432037 1135.137939,101.187759 
	C1118.450806,103.854935 1101.930908,107.430954 1086.356079,114.126869 
	C1071.707764,120.424423 1057.847656,128.180328 1046.159180,139.323181 
	C1034.233521,150.692093 1025.123413,164.165390 1018.241760,178.938217 
	C1008.456482,199.944244 998.928589,221.115982 990.472778,242.680435 
	C984.109192,258.909149 982.424866,275.586029 995.492188,290.970520 
M239.128586,152.632629 
	C229.370239,170.528091 219.638458,188.438080 209.847061,206.315430 
	C196.712662,230.296539 183.523926,254.247864 170.374710,278.220856 
	C163.043762,291.586304 155.700668,304.945374 148.446411,318.352417 
	C142.290924,329.728790 136.192368,341.137451 130.248917,352.625153 
	C129.538406,353.998413 129.959930,355.957428 129.856735,357.644928 
	C133.697357,355.754456 136.391571,354.012482 138.503754,351.731567 
	C152.364944,336.763123 166.045349,321.627411 179.892532,306.645844 
	C193.758652,291.643860 207.719742,276.729218 221.695145,261.828735 
	C237.841263,244.613815 254.071854,227.478134 270.222321,210.267288 
	C284.426880,195.130081 298.596222,179.959671 312.735138,164.761108 
	C325.178131,151.385513 337.432739,137.832428 350.000732,124.575974 
	C362.019073,111.899307 374.333557,99.503395 386.519775,86.985954 
	C387.217102,86.269653 387.966553,85.601418 388.632996,84.858131 
	C403.020874,68.811302 417.440186,52.792324 431.753448,36.679142 
	C435.309296,32.676144 438.516937,28.363823 442.776367,23.089464 
	C439.271667,22.563812 437.394196,22.011431 435.527374,22.045223 
	C421.069794,22.306953 406.612579,22.623182 392.159058,23.051939 
	C386.694489,23.214045 381.231720,23.619410 375.782440,24.082272 
	C356.995300,25.678047 338.189056,27.105436 319.439972,29.072744 
	C306.302704,30.451216 293.067169,31.780291 280.191742,34.583656 
	C252.905655,40.524651 225.724197,47.020309 198.687042,54.012417 
	C162.061081,63.484299 126.883858,77.063744 92.638748,93.108009 
	C73.197357,102.216530 55.254383,113.804443 37.616364,125.911652 
	C29.567968,131.436295 21.498116,136.945084 13.685756,142.792099 
	C9.385936,146.010208 9.788614,148.789154 14.353021,151.106430 
	C34.629189,161.400391 54.941006,171.624420 75.177536,181.995499 
	C76.383224,182.613403 77.661858,184.209518 77.833595,185.493912 
	C78.204720,188.269363 78.166603,191.177200 77.788513,193.961990 
	C75.966614,207.380798 73.885834,220.764511 72.067909,234.183838 
	C69.673233,251.860626 67.227097,269.535950 65.287201,287.264862 
	C64.819878,291.535706 62.875858,296.903168 68.987701,300.733887 
	C88.163055,251.892731 107.144073,203.546539 126.386955,154.533356 
	C97.622131,150.000854 69.781281,150.428741 42.473351,144.827133 
	C43.927700,143.064209 45.379158,141.694229 47.102676,141.026321 
	C63.759338,134.571640 80.309120,127.793633 97.183548,121.958572 
	C129.935196,110.633286 163.547379,102.592125 198.046280,99.084534 
	C218.794891,96.974960 239.687073,96.249130 260.524536,95.075394 
	C263.343414,94.916618 266.219574,95.774811 269.832764,96.265884 
	C259.429413,115.381966 249.467316,133.687225 239.128586,152.632629 
z"/>
<path fill="#093879" opacity="1.000000" stroke="none" 
	d="
M917.000000,308.000000 
	C895.505371,307.999268 874.509644,307.887054 853.517029,308.093048 
	C849.379578,308.133636 847.817627,306.754059 846.887390,302.795044 
	C839.937683,273.215485 832.751465,243.691467 824.553101,213.815079 
	C822.514648,217.933258 820.356201,221.997040 818.460327,226.179855 
	C812.788452,238.694138 807.242188,251.265305 801.603882,263.794891 
	C795.557007,277.232666 789.443420,290.640411 783.404541,304.081726 
	C782.418518,306.276367 781.549866,308.051880 778.522278,308.041626 
	C746.864380,307.934143 715.206055,307.958832 683.547852,307.926697 
	C682.903381,307.926056 682.259094,307.682800 680.866028,307.401581 
	C682.481201,303.459076 683.900574,299.676636 685.557983,296.001556 
	C695.232483,274.549011 705.021790,253.148087 714.659546,231.679092 
	C727.002808,204.183334 739.227478,176.634354 751.526672,149.118805 
	C757.746033,135.204956 764.093994,121.347923 770.209045,107.388657 
	C771.684265,104.021080 773.687378,102.893059 777.393433,102.912689 
	C807.384888,103.071564 837.378357,103.105789 867.369141,102.889847 
	C871.878052,102.857391 873.290466,104.560806 874.144897,108.601944 
	C880.363525,138.014694 886.779663,167.385681 893.157227,196.764679 
	C893.248657,197.185623 893.647522,197.539841 894.440125,198.736084 
	C896.329651,195.085220 898.074158,191.998047 899.563538,188.792358 
	C912.064148,161.886642 924.596985,134.995178 936.898926,107.998650 
	C938.698181,104.050240 940.967712,102.873589 945.203125,102.900078 
	C975.360962,103.088707 1005.520447,103.000519 1035.679443,103.000443 
	C1037.328003,103.000435 1038.976440,103.000443 1041.764038,103.000443 
	C1038.852783,109.719727 1036.351196,115.731293 1033.663330,121.658310 
	C1017.245728,157.860489 1000.808777,194.053970 984.331055,230.228806 
	C975.063782,250.573990 965.706238,270.878082 956.388062,291.200073 
	C954.386169,295.566162 952.063538,299.819519 950.485107,304.333374 
	C949.443726,307.311249 947.829712,308.063629 944.992798,308.032135 
	C935.829529,307.930389 926.664429,307.997772 917.000000,308.000000 
z"/>
<path fill="#093879" opacity="1.000000" stroke="none" 
	d="
M537.980469,242.096375 
	C537.580750,246.754684 535.466187,252.541367 537.455933,254.981720 
	C540.829773,259.119720 546.833435,260.286469 552.875244,259.256256 
	C561.916077,257.714691 567.815308,252.123795 571.981689,244.751633 
	C577.923523,234.237961 583.426147,223.451920 588.618591,212.545227 
	C594.740417,199.686371 600.337463,186.577530 606.150330,173.571854 
	C616.082092,151.350677 626.071411,129.154617 635.842957,106.863167 
	C637.007507,104.206535 638.122620,102.942703 641.154724,102.951187 
	C673.809204,103.042664 706.464050,103.005135 739.118835,103.029686 
	C740.218445,103.030518 741.317871,103.313698 743.049316,103.552383 
	C739.111572,112.246834 735.420288,120.512459 731.635132,128.734909 
	C715.703186,163.343964 699.634827,197.890686 683.842590,232.563278 
	C676.735168,248.168091 668.795166,263.100006 656.875427,275.725525 
	C643.574219,289.814270 627.275757,299.003357 609.522156,305.976349 
	C590.276184,313.535645 570.193909,317.354706 549.653015,319.029419 
	C541.905212,319.661102 534.147583,320.964233 526.415833,320.819397 
	C514.341614,320.593262 502.261078,319.652954 490.231049,318.511200 
	C483.022461,317.827118 475.840546,316.475006 468.759949,314.910400 
	C454.874054,311.841949 442.652771,305.561462 432.668335,295.204987 
	C428.307129,290.681213 426.415405,285.343597 425.943481,279.142548 
	C424.836639,264.598572 428.973694,251.480515 435.080719,238.451889 
	C446.606110,213.863831 457.048615,188.768661 468.544525,164.166168 
	C480.479462,138.624023 493.492828,113.582436 505.232452,87.954521 
	C508.537628,80.739304 512.333740,78.667717 519.975708,78.803940 
	C547.956604,79.302704 575.951721,79.001625 603.941528,79.001740 
	C606.079041,79.001747 608.216553,79.001732 611.294739,79.001732 
	C586.658386,133.778885 562.384827,187.749329 537.980469,242.096375 
z"/>
<path fill="#093879" opacity="1.000000" stroke="none" 
	d="
M995.253357,290.705688 
	C982.424866,275.586029 984.109192,258.909149 990.472778,242.680435 
	C998.928589,221.115982 1008.456482,199.944244 1018.241760,178.938217 
	C1025.123413,164.165390 1034.233521,150.692093 1046.159180,139.323181 
	C1057.847656,128.180328 1071.707764,120.424423 1086.356079,114.126869 
	C1101.930908,107.430954 1118.450806,103.854935 1135.137939,101.187759 
	C1139.865967,100.432037 1144.703979,100.086327 1149.495117,100.052071 
	C1167.492310,99.923409 1185.536499,99.202827 1203.476929,100.220215 
	C1222.401611,101.293381 1240.707642,105.413811 1257.037109,116.268776 
	C1268.241943,123.717224 1274.103149,141.106689 1271.524902,152.660370 
	C1265.082764,181.528107 1252.950073,208.179535 1238.614990,233.875397 
	C1233.863892,242.391815 1229.114014,250.983154 1223.495605,258.926361 
	C1210.467041,277.346008 1192.181763,289.186615 1171.771362,297.869537 
	C1151.340088,306.561340 1129.924072,311.138824 1107.711670,312.055023 
	C1095.790039,312.546722 1083.844727,314.257233 1071.974365,313.788940 
	C1053.182373,313.047577 1034.006714,312.847290 1016.500732,304.754974 
	C1008.980774,301.278778 1002.464478,295.631409 995.253357,290.705688 
M1160.143066,176.557266 
	C1161.038574,174.066742 1162.295288,171.638916 1162.741089,169.070328 
	C1163.338745,165.627670 1163.685791,161.693314 1159.622314,159.994125 
	C1154.176636,157.717010 1148.730835,157.230560 1142.791260,159.469070 
	C1133.240723,163.068512 1128.139282,170.474930 1124.029297,178.987442 
	C1116.602783,194.369431 1109.218018,209.772736 1101.970947,225.239822 
	C1099.235596,231.077621 1096.597412,237.003464 1094.519531,243.095367 
	C1092.303467,249.591965 1096.607788,256.404114 1103.054443,255.735306 
	C1113.158203,254.687073 1123.151978,252.302780 1128.831299,242.314484 
	C1131.123047,238.284149 1133.454102,234.256012 1135.418823,230.063583 
	C1143.646973,212.506607 1151.742920,194.887680 1160.143066,176.557266 
z"/>
<path fill="#093879" opacity="1.000000" stroke="none" 
	d="
M239.316895,152.312561 
	C249.467316,133.687225 259.429413,115.381966 269.832764,96.265884 
	C266.219574,95.774811 263.343414,94.916618 260.524536,95.075394 
	C239.687073,96.249130 218.794891,96.974960 198.046280,99.084534 
	C163.547379,102.592125 129.935196,110.633286 97.183548,121.958572 
	C80.309120,127.793633 63.759338,134.571640 47.102676,141.026321 
	C45.379158,141.694229 43.927700,143.064209 42.473351,144.827133 
	C69.781281,150.428741 97.622131,150.000854 126.386955,154.533356 
	C107.144073,203.546539 88.163055,251.892731 68.987701,300.733887 
	C62.875858,296.903168 64.819878,291.535706 65.287201,287.264862 
	C67.227097,269.535950 69.673233,251.860626 72.067909,234.183838 
	C73.885834,220.764511 75.966614,207.380798 77.788513,193.961990 
	C78.166603,191.177200 78.204720,188.269363 77.833595,185.493912 
	C77.661858,184.209518 76.383224,182.613403 75.177536,181.995499 
	C54.941006,171.624420 34.629189,161.400391 14.353021,151.106430 
	C9.788614,148.789154 9.385936,146.010208 13.685756,142.792099 
	C21.498116,136.945084 29.567968,131.436295 37.616364,125.911652 
	C55.254383,113.804443 73.197357,102.216530 92.638748,93.108009 
	C126.883858,77.063744 162.061081,63.484299 198.687042,54.012417 
	C225.724197,47.020309 252.905655,40.524651 280.191742,34.583656 
	C293.067169,31.780291 306.302704,30.451216 319.439972,29.072744 
	C338.189056,27.105436 356.995300,25.678047 375.782440,24.082272 
	C381.231720,23.619410 386.694489,23.214045 392.159058,23.051939 
	C406.612579,22.623182 421.069794,22.306953 435.527374,22.045223 
	C437.394196,22.011431 439.271667,22.563812 442.776367,23.089464 
	C438.516937,28.363823 435.309296,32.676144 431.753448,36.679142 
	C417.440186,52.792324 403.020874,68.811302 388.632996,84.858131 
	C387.966553,85.601418 387.217102,86.269653 386.519775,86.985954 
	C374.333557,99.503395 362.019073,111.899307 350.000732,124.575974 
	C337.432739,137.832428 325.178131,151.385513 312.735138,164.761108 
	C298.596222,179.959671 284.426880,195.130081 270.222321,210.267288 
	C254.071854,227.478134 237.841263,244.613815 221.695145,261.828735 
	C207.719742,276.729218 193.758652,291.643860 179.892532,306.645844 
	C166.045349,321.627411 152.364944,336.763123 138.503754,351.731567 
	C136.391571,354.012482 133.697357,355.754456 129.856735,357.644928 
	C129.959930,355.957428 129.538406,353.998413 130.248917,352.625153 
	C136.192368,341.137451 142.290924,329.728790 148.446411,318.352417 
	C155.700668,304.945374 163.043762,291.586304 170.374710,278.220856 
	C183.523926,254.247864 196.712662,230.296539 209.847061,206.315430 
	C219.638458,188.438080 229.370239,170.528091 239.316895,152.312561 
z"/>
<path fill="#000000" opacity="1.000000" stroke="none" 
	d="
M1160.015137,176.924377 
	C1151.742920,194.887680 1143.646973,212.506607 1135.418823,230.063583 
	C1133.454102,234.256012 1131.123047,238.284149 1128.831299,242.314484 
	C1123.151978,252.302780 1113.158203,254.687073 1103.054443,255.735306 
	C1096.607788,256.404114 1092.303467,249.591965 1094.519531,243.095367 
	C1096.597412,237.003464 1099.235596,231.077621 1101.970947,225.239822 
	C1109.218018,209.772736 1116.602783,194.369431 1124.029297,178.987442 
	C1128.139282,170.474930 1133.240723,163.068512 1142.791260,159.469070 
	C1148.730835,157.230560 1154.176636,157.717010 1159.622314,159.994125 
	C1163.685791,161.693314 1163.338745,165.627670 1162.741089,169.070328 
	C1162.295288,171.638916 1161.038574,174.066742 1160.015137,176.924377 
z"/>
</svg>